<?xml version="1.0" encoding="UTF-8"?>
<svg id="Layer_1_copy_4" xmlns="http://www.w3.org/2000/svg" version="1.1" viewBox="0 0 566.93 566.93">
  <!-- Generator: Adobe Illustrator 30.3.0, SVG Export Plug-In . SVG Version: 2.1.3 Build 182)  -->
  <defs>
    <style>
      .st0 {
        fill: #414042;
      }

      .st1 {
        fill: #00bfdf;
      }

      .st2 {
        fill: #b1b5bd;
      }
    </style>
  </defs>
  <g>
    <path class="st1" d="M398.59,110.63v55.25h-156.54v79.65h143.19v52.49h-143.19v134.9h-62.16V110.63h218.7Z"/>
    <g>
      <path class="st0" d="M256.42,182.32c7.02,6.44,11.56,14.34,13.61,23.71,3.51,9.95,5.27,20.2,5.27,30.74v1.76c-.3,9.08-1.83,19.91-4.61,32.49-2.79,12.59-6.08,23.27-9.88,32.05-2.93,8.2-7.54,17.5-13.83,27.88-6.3,10.4-12.23,18.96-17.79,25.69-18.44,20.5-36.01,30.3-52.69,29.42-4.1-.29-8.56-1.68-13.39-4.17-4.83-2.48-8.56-5.34-11.19-8.56-3.23-4.97-4.83-10.54-4.83-16.69,0-4.68,1.02-9.07,3.07-13.17,6.15-16.97,16.75-31.54,31.83-43.69,15.07-12.15,32.12-21.44,51.16-27.88,2.04-.88,3.36-.29,3.95,1.76.29,2.34-.44,3.81-2.2,4.39-7.61,2.93-16.18,7.24-25.69,12.95-9.52,5.71-17.2,11.2-23.05,16.47-6.74,6.15-12.59,13.17-17.56,21.08-5.27,8.2-7.91,17.13-7.91,26.78v.88c.29,3.23,1.83,6.15,4.61,8.78,2.78,2.64,5.93,4.1,9.44,4.39,1.17.29,2.34.44,3.51.44,7.03,0,13.32-2.05,18.88-6.15,6.15-4.1,12.58-9.73,19.32-16.91,6.73-7.17,12-13.83,15.81-19.98,9.07-14.93,15.95-30.74,20.64-47.42,5.56-16.39,8.34-33.22,8.34-50.5v-6.58c-.59-4.39-1.32-8.49-2.2-12.3-.88-3.8-2.2-8.19-3.95-13.17-1.76-4.97-4.39-8.56-7.91-10.76-3.51-2.2-7.46-2.56-11.85-1.1-9.08,3.81-16.4,9.81-21.96,18-6.15,7.02-11.85,14.49-17.13,22.39-7.03,10.83-14.27,24.67-21.73,41.5-7.47,16.83-12.67,31.55-15.59,44.13v11.85c-1.47,3.81-4.1,5.71-7.9,5.71s-6.3-1.9-7.47-5.71c-.29-3.51-.44-7.17-.44-10.98,0-9.66,1.1-21.3,3.29-34.91s4.76-25.1,7.68-34.47c4.39-13.18,9.66-25.91,15.81-38.2,3.22-5.56,6.58-10.98,10.1-16.25.29-.29,1.02-1.32,2.2-3.07,1.17-1.76,1.97-2.92,2.41-3.51.44-.58,1.24-1.54,2.42-2.85,1.17-1.32,2.26-2.27,3.29-2.86,1.02-.58,2.12-1.02,3.29-1.32h.88c2.04,0,3.36.88,3.95,2.64-.29,6.44-2.35,12.15-6.15,17.13-4.39,8.49-7.32,14.2-8.78,17.13-5.56,11.42-10.1,23.27-13.61,35.57-4.39,13.76-7.32,27.67-8.78,41.72,4.68-13.46,11.92-28.98,21.73-46.54,9.8-17.56,19.39-31.76,28.76-42.59,17.27-20.49,32.2-26.2,44.79-17.13Z"/>
      <path class="st0" d="M414.5,183.19c.88-1.76,2.34-2.64,4.39-2.64,1.46,0,2.7.52,3.73,1.54,1.02,1.03,1.54,2.27,1.54,3.73-.59,3.22-1.25,7.9-1.97,14.05-.73,6.15-1.25,10.54-1.54,13.17-1.47,7.91-2.93,16.98-4.39,27.23-1.47,9.66-3.37,26.94-5.71,51.81-1.17,14.64-1.61,32.21-1.32,52.69,0,5.27.29,14.05.88,26.35.58,12.29.88,21.67.88,28.1,0,3.51-2.05,5.63-6.15,6.37-4.1.73-6.44-.81-7.02-4.61-3.51-22.54-5.27-45.08-5.27-67.62,0-14.05.73-28.1,2.2-42.16.58-11.12,2.2-25.47,4.83-43.03-.59,1.47-1.39,3.44-2.42,5.93-1.03,2.49-1.69,4.03-1.97,4.61-6.15,15.52-15.23,36.59-27.23,63.23-1.17,3.81-3.66,7.54-7.46,11.2-3.81,3.67-7.61,6.08-11.42,7.24-.88.3-1.91.44-3.07.44-3.51,0-7.1-1.1-10.76-3.29-3.67-2.2-6.37-4.9-8.12-8.12-4.69-8.19-7.62-16.98-8.78-26.35-1.76-9.36-3.51-19.46-5.27-30.3-1.17,7.32-2.49,14.05-3.95,20.2-3.51,16.1-8.06,32.05-13.61,47.86-4.69,15.81-11.13,30.74-19.32,44.79-.88,2.34-2.49,3.51-4.83,3.51-1.76,0-3.23-.58-4.39-1.76-1.17-1.17-1.76-2.64-1.76-4.39,0-.58.15-1.17.44-1.76,1.76-6.15,4.61-14.85,8.56-26.13,3.95-11.27,6.22-17.93,6.81-19.98,5.27-15.51,9.66-30.74,13.17-45.67,7.91-31.03,13.32-62.64,16.25-94.85.29-2.04,1.31-3.51,3.07-4.39s3.51-.88,5.27,0,2.48,2.35,2.2,4.39v.88c0,12.01,1.02,23.86,3.07,35.57,1.17,13.17,2.48,25.03,3.95,35.57,1.46,9.08,3.36,19.47,5.71,31.18.88,8.2,3.22,15.96,7.03,23.27,1.17,2.05,2.56,3.3,4.17,3.73,1.6.44,3.22.15,4.83-.88,1.6-1.02,3.07-2.27,4.39-3.73,1.32-1.46,2.78-3.51,4.39-6.15,1.61-2.64,2.86-4.83,3.73-6.59s1.9-3.73,3.07-5.93c1.17-2.2,1.9-3.58,2.19-4.17,9.95-18.44,18.88-36.89,26.79-55.33,4.09-9.07,8.05-19.91,11.85-32.5.88-3.22,2.27-7.68,4.17-13.39,1.9-5.71,3.29-10.03,4.17-12.95Z"/>
    </g>
  </g>
  <g>
    <path class="st2" d="M295.45,7.74l-.21,4.33-1.41-.07.5-10.06,4.8.24c2.06.1,3.39,1.11,3.31,2.9-.06,1.21-.71,2.04-1.96,2.31.65.21,1.54.76,1.45,2.52l-.02.44c-.04.77-.08,1.61.02,2.05l-1.45-.07c-.13-.45-.07-1.21-.03-2.05l.02-.34c.07-1.48-.48-1.98-2.24-2.07l-2.76-.13ZM295.51,6.57l3.03.15c1.57.08,2.37-.43,2.43-1.63.06-1.1-.69-1.68-2.21-1.76l-3.08-.15-.17,3.4Z"/>
    <path class="st2" d="M312.63,9.74c-.18,1.98-1.63,3.65-4.19,3.41-2.41-.22-3.6-2.13-3.42-4.1.19-2.04,1.78-3.64,4.18-3.42,2.47.23,3.6,2.22,3.43,4.11ZM306.39,9.18c-.12,1.36.62,2.74,2.19,2.88,1.64.15,2.53-1,2.66-2.42.13-1.43-.62-2.77-2.2-2.91-1.62-.15-2.51,1.02-2.65,2.45Z"/>
    <path class="st2" d="M315.65,8.29c.08-.61.16-1.22.23-1.84l1.29.17c0,.29-.05.7-.1,1.07.44-.56,1.22-1.12,2.47-.95,1.17.16,1.8.81,2,1.66.46-.56,1.23-1.22,2.63-1.03,1.4.19,2.43,1.16,2.15,3.26l-.59,4.39-1.32-.18.58-4.35c.11-.83-.02-1.89-1.28-2.06-1.13-.15-1.97.52-2.18,2.05l-.52,3.9-1.33-.18.59-4.41c.11-.85-.05-1.84-1.3-2.01-1.34-.18-2,.8-2.19,2.15l-.51,3.8-1.33-.18.71-5.27Z"/>
    <path class="st2" d="M328.66,15.54l.39-2.29,1.47.25-.39,2.29-1.47-.25Z"/>
    <path class="st2" d="M339.82,17.65l1.63-7.75c-.63.28-1.87.46-2.36.42l.22-1.05c1.12-.09,2.2-.53,2.8-.95l.99.21-1.97,9.4-1.31-.28Z"/>
    <path class="st2" d="M344.19,18.57v-.07c.39-1.58,1.72-2.74,4.25-3.56,1.97-.63,2.53-.87,2.77-1.87.19-.79-.13-1.76-1.53-2.1-1.17-.28-2.04.21-2.55,1.42l-1.29-.31c.56-1.72,2.12-2.68,4.14-2.2,2.14.51,2.93,2.03,2.58,3.49-.38,1.58-1.39,1.93-3.36,2.56-1.58.5-2.73,1.09-3.18,1.88l5.6,1.34-.46,1.07-6.95-1.66Z"/>
    <path class="st2" d="M353.87,20.99l.57-2.14,1.36.36-.57,2.14-1.36-.36ZM355.17,16.16l.58-2.15,1.36.37-.58,2.14-1.36-.36Z"/>
    <path class="st2" d="M360,22.7l2.2-7.6c-.65.23-1.9.31-2.38.25l.3-1.03c1.12,0,2.23-.36,2.86-.73l.97.28-2.67,9.21-1.29-.37Z"/>
    <path class="st2" d="M366.3,24.63l2.41-7.54c-.66.21-1.91.26-2.39.18l.33-1.02c1.12.03,2.24-.3,2.88-.65l.96.31-2.92,9.14-1.28-.41Z"/>
    <path class="st2" d="M376.24,23.52l-.38,1.1-4.28-1.48.38-1.1,4.28,1.48Z"/>
    <path class="st2" d="M379.16,29.09l2.78-7.39c-.66.18-1.91.17-2.38.06l.38-1c1.11.08,2.24-.19,2.9-.51l.95.35-3.36,8.96-1.25-.47Z"/>
    <path class="st2" d="M386.29,24.08c.57-.95,1.95-2,4.18-1.08,2.17.9,2.56,2.47,2.08,3.64-.49,1.19-1.52,1.32-2.12,1.26v.02c.58.43,1.42,1.5.82,2.97-.68,1.64-2.4,2.26-4.56,1.37-2.26-.93-2.72-2.59-2.41-4l1.27.53c-.15,1.02.36,1.95,1.61,2.46,1.15.47,2.28.32,2.79-.93.41-1.01-.03-1.91-1.46-2.5l-.7-.29.44-1.07.56.23c1.43.59,2.08.27,2.41-.54.3-.73.06-1.61-1.2-2.13-1.26-.52-1.99-.09-2.49.57l-1.23-.51Z"/>
    <path class="st2" d="M397.88,36.88l4.38-9.06,1.53.74c.67,3.82,1.78,8.95,1.85,10.13h.02c.49-1.21,1.19-2.63,1.9-4.1l1.65-3.41,1.2.58-4.38,9.06-1.45-.7c-.47-2.46-1.66-9.06-1.8-10.43h-.03c-.49,1.19-1.11,2.47-1.89,4.07l-1.78,3.7-1.2-.58Z"/>
    <path class="st2" d="M414.26,33.74l1.26.68-2.37,4.37c1.99-.42,5.12-1.03,7.58-1.55l1.63.88-6.57,1.36,2.03,7.65-1.63-.88-1.71-6.6-1.98.35-1.78,3.29-1.25-.68,4.8-8.87Z"/>
    <path class="st2" d="M424.25,46.94c-1.25,2.12-2.65,2.69-4.59,1.55-.48-.28-.84-.55-1.11-.79l.61-1.04c.27.23.65.5,1.05.74,1.22.72,2.1,0,2.76-1.12l3.39-5.76,1.23.72-3.35,5.7Z"/>
    <path class="st2" d="M428.38,53.52l1.67-10.83,1.31.84-.94,5.75c-.35,2.13-.55,3.07-.7,3.65l.02.02c.39-.33,1.35-.99,2.81-2.04l5.03-3.43,1.28.81-9.14,6.1-1.35-.86Z"/>
    <path class="st2" d="M445.58,60.08l-.68.95-3.67-2.62.67-.95,3.68,2.62Z"/>
    <path class="st2" d="M453.49,63.13l1.54-2.23.87-1.12,1.08.84-.87,1.11-1.77,2.07-.85-.66Z"/>
    <path class="st2" d="M456.04,66.57c.38-.47.81-.99,1.13-1.41l1.02.83c-.13.21-.5.68-.8,1.06.68-.34,1.79-.51,2.98.46,1.3,1.07,1.49,2.56.25,4.08l-2.76,3.38-1.05-.86,2.61-3.19c.75-.91.99-1.92-.04-2.77-1.16-.95-2.44-.53-3.49.76l-2.18,2.66-1.04-.85,3.39-4.15Z"/>
    <path class="st2" d="M468.04,79.05c-1.31,1.5-3.47,2-5.4.3-1.82-1.6-1.66-3.84-.35-5.33,1.36-1.54,3.58-1.9,5.39-.31,1.86,1.64,1.6,3.92.36,5.34ZM463.32,74.92c-.9,1.02-1.11,2.58.08,3.62,1.23,1.08,2.63.68,3.58-.4.95-1.08,1.13-2.6-.07-3.65-1.22-1.08-2.64-.65-3.59.43Z"/>
    <path class="st2" d="M471.98,77.8l1.04.98,1.58-1.69.99.92-1.58,1.69,1.37,1.28-.73.78-1.37-1.28-2.68,2.87c-.56.6-.66,1.01-.09,1.54.15.15.37.34.56.44l-.68.73c-.31-.14-.6-.38-.9-.66-1.09-1.01-.97-1.81,0-2.84l2.8-3-1.04-.98.72-.78Z"/>
    <path class="st2" d="M476.04,91.65l7.56-7.51.95.95-7.56,7.52-.95-.96Z"/>
    <path class="st2" d="M484.92,98.32c-.51.48-1.14,1.13-1.25,1.27l-.88-.93c.15-.22.54-.62.71-.78-.8.24-1.72-.01-2.77-1.12-1.39-1.48-1.01-2.86-.22-3.6,1.34-1.26,2.85-.39,4.26,1.1.59.63,1.03,1.09,1.2,1.27l.28-.26c.57-.54.87-1.29-.17-2.4-.94-1-1.6-.82-2.18-.47l-.93-.98c.75-.59,2.16-1.04,3.85.75,1.79,1.9,1.26,3.2.4,4.01l-2.28,2.15ZM485.27,96.18c-.15-.17-.48-.52-1.18-1.25-1.13-1.2-1.92-1.51-2.62-.85-.52.49-.59,1.29.22,2.15,1.31,1.39,2.47,1,3.35.17l.23-.21Z"/>
    <path class="st2" d="M491.1,106.54c-2.03,1.78-3.8,2.15-5.75-.07-1.86-2.12-1.02-3.62-.48-4.27l.91,1.03c-.41.64-.55,1.46.43,2.58,1.38,1.57,2.63.94,3.96-.22l.29-.26c-.91.22-1.83,0-2.81-1.12-1.33-1.52-1.07-3.62.46-4.96,1.72-1.51,4.01-1.3,5.28.15,1.09,1.23.96,2.22.69,2.75.27-.22.69-.58.86-.7l.86.98c-.53.45-1.05.9-1.57,1.36l-3.12,2.74ZM489.06,100.25c-1.11.98-1.27,2.41-.35,3.47.99,1.12,2.28,1.19,3.56.07,1.25-1.1,1.39-2.36.42-3.46-1.1-1.25-2.62-.96-3.63-.07Z"/>
    <path class="st2" d="M497.59,114.43c-2.09,1.7-3.87,2-5.73-.29-1.77-2.18-.88-3.64-.31-4.28l.87,1.07c-.43.63-.61,1.44.33,2.59,1.32,1.62,2.58,1.04,3.96-.07l.3-.25c-.92.19-1.83-.07-2.76-1.22-1.27-1.57-.93-3.65.65-4.93,1.78-1.45,4.05-1.14,5.26.35,1.03,1.27.87,2.25.58,2.77.27-.21.71-.55.88-.66l.82,1.01c-.55.43-1.08.86-1.62,1.3l-3.22,2.61ZM495.79,108.09c-1.14.93-1.36,2.35-.48,3.44.94,1.16,2.23,1.27,3.54.21,1.29-1.05,1.48-2.3.55-3.44-1.05-1.29-2.58-1.05-3.62-.21Z"/>
    <path class="st2" d="M504.59,113.29l.82,1.07-5.69,4.37-.82-1.07,5.69-4.37ZM507.35,111.17l.82,1.07-1.28.99-.82-1.07,1.29-.99Z"/>
    <path class="st2" d="M506.06,118.21c.49-.35,1.03-.75,1.45-1.07l.77,1.06c-.18.17-.65.53-1.04.82.74-.16,1.85-.04,2.76,1.2.99,1.36.79,2.85-.8,4.01l-3.53,2.56-.8-1.1,3.33-2.42c.95-.7,1.45-1.61.66-2.69-.87-1.21-2.23-1.13-3.57-.16l-2.78,2.02-.79-1.09,4.34-3.15Z"/>
    <path class="st2" d="M512.19,134.73c-2.24,1.5-4.05,1.64-5.7-.82-1.57-2.34-.54-3.72.08-4.31l.76,1.14c-.49.58-.74,1.38.09,2.62,1.17,1.74,2.48,1.28,3.96.29l.33-.22c-.94.1-1.82-.24-2.65-1.48-1.12-1.68-.58-3.73,1.1-4.87,1.91-1.28,4.15-.77,5.23.84.91,1.36.66,2.33.32,2.82.29-.19.76-.49.94-.58l.73,1.08c-.58.38-1.16.76-1.74,1.15l-3.45,2.31ZM510.99,128.23c-1.22.82-1.58,2.22-.8,3.39.84,1.24,2.11,1.47,3.52.53,1.39-.93,1.69-2.16.87-3.38-.93-1.39-2.48-1.29-3.59-.55Z"/>
    <path class="st2" d="M522.08,138.78l.7,1.15-6.12,3.72-.7-1.15,6.12-3.72ZM525.06,136.97l.7,1.15-1.38.84-.7-1.15,1.38-.84Z"/>
    <path class="st2" d="M523.04,143.85c.53-.3,1.11-.63,1.56-.91l.65,1.14c-.2.15-.71.46-1.13.7.75-.07,1.85.17,2.61,1.5.83,1.46.47,2.93-1.24,3.9l-3.79,2.16-.67-1.18,3.59-2.04c1.02-.58,1.61-1.44.95-2.6-.74-1.3-2.09-1.37-3.53-.55l-2.99,1.7-.67-1.18,4.67-2.66Z"/>
    <path class="st2" d="M538.29,161.34l-7.68,3.79c-.62.3-1.25.62-1.86.93l-.58-1.18c.25-.17.64-.37.95-.53-.71-.06-1.59-.3-2.32-1.79-.92-1.86-.15-3.8,1.8-4.76,2.11-1.04,4.23-.11,5.06,1.57.74,1.51.32,2.37.1,2.7l3.93-1.94.6,1.21ZM529.25,159.04c-1.19.58-2,1.88-1.31,3.29.76,1.53,2.05,1.67,3.47.97,1.41-.7,2.11-1.66,1.31-3.28-.72-1.46-2.27-1.58-3.48-.98Z"/>
    <path class="st2" d="M536.65,166.02l.56,1.22-6.51,3.01-.56-1.22,6.51-3.01ZM539.81,164.56l.56,1.22-1.47.68-.56-1.22,1.47-.68Z"/>
    <path class="st2" d="M532.11,173.35l9.75-4.31.55,1.23-9.75,4.31-.55-1.23Z"/>
    <path class="st2" d="M540.58,174.82l.53,1.24-6.62,2.79-.52-1.24,6.62-2.79ZM543.79,173.47l.53,1.24-1.49.63-.53-1.24,1.49-.63Z"/>
    <path class="st2" d="M539.14,188c-2.51.98-4.31.72-5.38-2.03-1.02-2.62.28-3.74,1.01-4.18l.5,1.28c-.6.46-1.02,1.18-.48,2.57.76,1.95,2.14,1.79,3.79,1.14l.36-.14c-.93-.1-1.72-.63-2.26-2.01-.73-1.88.24-3.77,2.13-4.5,2.13-.83,4.21.15,4.91,1.95.59,1.53.14,2.41-.3,2.82.33-.12.85-.31,1.04-.36l.47,1.21c-.65.24-1.3.49-1.94.74l-3.86,1.5ZM539.37,181.41c-1.37.54-2.02,1.82-1.51,3.13.54,1.39,1.74,1.89,3.31,1.28,1.55-.61,2.11-1.74,1.58-3.1-.6-1.55-2.13-1.8-3.38-1.31Z"/>
    <path class="st2" d="M542.75,191.14c-1.28.52-1.93,1.73-1.45,3.11.37,1.06,1.01,1.49,1.79,1.63l.44,1.27c-1.13-.01-2.58-.59-3.28-2.62-.84-2.43.55-4.15,2.33-4.77,2.05-.71,4.07.12,4.81,2.25.89,2.58-.68,4.14-2.33,4.71-.12.04-.2.07-.34.11l-1.97-5.7ZM545.17,195.2c.79-.34,1.81-1.17,1.23-2.85-.48-1.39-1.58-1.77-2.74-1.5l1.51,4.35Z"/>
    <path class="st2" d="M547.61,198.92c.58-.18,1.22-.37,1.73-.54l.38,1.25c-.23.1-.79.29-1.25.44.75.1,1.77.57,2.22,2.04.49,1.61-.18,2.96-2.06,3.54l-4.18,1.28-.4-1.3,3.95-1.21c1.13-.35,1.89-1.05,1.5-2.33-.44-1.43-1.74-1.79-3.33-1.31l-3.29,1.01-.4-1.3,5.14-1.57Z"/>
    <path class="st2" d="M549.27,216.03c-1.34,0-2.74-.79-3.27-2.76-.66-2.46.68-4.09,2.65-4.62,1.97-.53,4.03.35,4.66,2.67.63,2.33-.62,3.6-1.5,4l-.35-1.3c.58-.41,1.14-1.14.79-2.44-.39-1.46-1.7-2.02-3.22-1.61-1.44.39-2.37,1.51-1.97,3.01.3,1.12.98,1.6,1.86,1.74l.35,1.3Z"/>
    <path class="st2" d="M551.09,219.25c-1.32.38-2.09,1.51-1.76,2.93.25,1.09.83,1.59,1.6,1.81l.3,1.31c-1.13-.13-2.49-.86-2.98-2.94-.58-2.5.99-4.06,2.82-4.48,2.11-.49,4.03.55,4.53,2.75.61,2.65-1.11,4.03-2.81,4.42-.12.03-.21.05-.35.08l-1.36-5.86ZM553.07,223.53c.81-.25,1.92-.97,1.51-2.69-.33-1.43-1.38-1.92-2.55-1.78l1.04,4.47Z"/>
    <path class="st2" d="M547.71,227.94c1.78.41,3.15.44,4.4.3l.28,1.36c-1.23.12-3.14-.02-4.44-.51l-.23-1.15Z"/>
    <path class="st2" d="M551.68,238.65l6.03-.98-.21-1.33,1.05-.17.21,1.32.95-.15c1.6-.26,2.7.28,2.97,1.93.06.35.08.65.06.85l-1.09.18c.01-.2-.01-.47-.04-.65-.15-.95-.61-1.16-1.75-.97l-.89.15.27,1.65-1.05.17-.27-1.65-6.03.98-.21-1.33Z"/>
    <path class="st2" d="M555.87,244.25c-1.35.26-2.23,1.31-2.04,2.75.15,1.11.69,1.66,1.43,1.95l.18,1.33c-1.11-.24-2.41-1.09-2.69-3.21-.34-2.55,1.36-3.96,3.23-4.21,2.14-.29,3.96.92,4.27,3.16.36,2.7-1.49,3.92-3.22,4.15-.12.02-.21.03-.35.04l-.81-5.98ZM557.44,248.71c.84-.18,2.01-.79,1.77-2.55-.19-1.46-1.2-2.05-2.38-2.02l.61,4.56Z"/>
    <path class="st2" d="M558.91,252.76c.64-.07,1.3-.13,1.94-.21l.13,1.3c-.21.04-.96.15-1.6.22,1.14.35,1.97,1.31,2.1,2.7l-1.29.13c-.15-1.64-1.27-2.79-3.36-2.57l-2.98.31-.14-1.34,5.2-.54Z"/>
    <path class="st2" d="M561.56,259.94c-1.59.78-4.96,2.6-5.71,2.92v.02c.63.15,1.86.54,6.09,1.97l.1,1.38-7.38-2.58-.11-1.46,6.9-3.7.11,1.46Z"/>
    <path class="st2" d="M558.31,269.77c-1.37.13-2.34,1.1-2.28,2.56.05,1.12.53,1.72,1.24,2.07l.06,1.35c-1.08-.34-2.3-1.3-2.39-3.45-.11-2.57,1.72-3.81,3.6-3.89,2.16-.09,3.86,1.28,3.96,3.54.11,2.72-1.84,3.76-3.59,3.84-.12,0-.21,0-.36.01l-.25-6.02ZM559.46,274.36c.85-.1,2.07-.6,1.99-2.37-.06-1.47-1.01-2.15-2.19-2.22l.19,4.59Z"/>
    <path class="st2" d="M560.66,278.52c.6-.01,1.27-.02,1.81-.04l.02,1.31c-.25.03-.84.06-1.32.07.69.3,1.54,1.03,1.56,2.57.02,1.68-1,2.79-2.96,2.82l-4.36.07-.02-1.36,4.12-.06c1.18-.02,2.11-.48,2.09-1.82-.02-1.49-1.17-2.2-2.83-2.18l-3.43.05-.02-1.35,5.36-.08Z"/>
    <path class="st2" d="M562.5,287.94l-.03,1.42,2.31.06-.03,1.35-2.31-.05-.04,1.87-1.06-.02.04-1.87-3.92-.09c-.82-.02-1.19.18-1.21.96,0,.21,0,.5.04.71l-.99-.02c-.11-.33-.12-.7-.11-1.11.03-1.48.71-1.92,2.12-1.89l4.1.09.03-1.42,1.06.02Z"/>
    <path class="st2" d="M562.03,300.6l-.08,1.35-7.17-.44.08-1.35,7.17.44ZM565.51,300.81l-.08,1.35-1.62-.1.08-1.35,1.62.1Z"/>
    <path class="st2" d="M559.9,305.28c.6.05,1.27.11,1.8.15l-.11,1.3c-.25,0-.84-.03-1.32-.07.66.37,1.42,1.19,1.29,2.72-.15,1.68-1.28,2.67-3.23,2.5l-4.35-.38.12-1.35,4.1.36c1.18.1,2.14-.26,2.26-1.59.13-1.49-.94-2.31-2.59-2.46l-3.42-.3.12-1.35,5.34.47Z"/>
    <path class="st2" d="M555,320.94c-.87.13-1.47.78-1.66,2.06-.2,1.36.2,1.91.84,2,.59.09,1.04-.21,1.53-1.98.67-2.44,1.61-2.78,2.49-2.65.92.13,1.98,1.03,1.65,3.3-.36,2.45-1.73,2.96-2.59,2.91l.2-1.34c.44-.04,1.18-.23,1.4-1.79.19-1.31-.33-1.67-.74-1.73-.53-.08-.89.21-1.35,1.8-.75,2.61-1.64,2.98-2.69,2.83-1.27-.19-2.08-1.3-1.74-3.58.3-2.06,1.36-3.14,2.86-3.17l-.2,1.34Z"/>
    <path class="st2" d="M552.43,330.32l-4.13-.75.24-1.32,8.39,1.53c.59.11,1.18.21,1.76.31l-.24,1.29c-.21,0-.69-.08-1.22-.17.66.55,1.19,1.49.92,2.97-.35,1.9-2.15,3-4.2,2.63-2.31-.42-3.56-2.3-3.21-4.21.27-1.46,1.02-1.99,1.69-2.27ZM554.13,335.42c1.26.23,2.67-.26,2.96-1.85.3-1.64-.73-2.57-2.21-2.84s-2.71.3-2.99,1.86c-.28,1.56.83,2.57,2.24,2.83Z"/>
    <path class="st2" d="M556.75,340.3l-.28,1.32-7.03-1.48.28-1.32,7.03,1.48ZM560.17,341.02l-.28,1.32-1.59-.34.28-1.32,1.59.34Z"/>
    <path class="st2" d="M553.82,344.58c.63.15,1.27.29,1.9.43l-.29,1.28c-.21-.02-.95-.17-1.58-.31.96.7,1.43,1.87,1.11,3.23l-1.26-.29c.39-1.6-.29-3.04-2.34-3.52l-2.91-.67.3-1.31,5.08,1.17Z"/>
    <path class="st2" d="M554.13,351.69l-.34,1.3-6.94-1.78.33-1.3,6.95,1.78ZM557.5,352.56l-.33,1.31-1.57-.4.34-1.31,1.57.4Z"/>
    <path class="st2" d="M553.18,355.44l-.38,1.37,2.23.62-.36,1.31-2.23-.62-.5,1.81-1.03-.28.5-1.81-3.79-1.05c-.79-.22-1.2-.11-1.41.64-.06.2-.12.48-.13.7l-.96-.27c-.02-.34.06-.71.17-1.11.39-1.44,1.16-1.69,2.52-1.31l3.96,1.09.38-1.37,1.02.28Z"/>
    <path class="st2" d="M542.74,358.95c1.38,1.2,2.57,1.86,3.74,2.33l-.4,1.32c-1.14-.47-2.76-1.5-3.68-2.53l.34-1.12Z"/>
    <path class="st2" d="M543.21,371.18c-.89-.03-1.59.49-2.02,1.72-.45,1.3-.16,1.92.45,2.13.57.2,1.07-.01,1.87-1.66,1.12-2.28,2.11-2.44,2.96-2.15.87.3,1.75,1.39,1,3.56-.81,2.35-2.25,2.59-3.09,2.38l.44-1.28c.45.04,1.2,0,1.72-1.5.44-1.26-.01-1.71-.4-1.85-.5-.17-.92.04-1.66,1.52-1.22,2.43-2.18,2.63-3.19,2.28-1.22-.42-1.8-1.66-1.04-3.86.68-1.97,1.92-2.84,3.41-2.58l-.44,1.28Z"/>
    <path class="st2" d="M541.13,380.28c-1.31-.42-2.59.08-3.11,1.44-.4,1.04-.19,1.79.31,2.4l-.48,1.26c-.86-.74-1.59-2.11-.82-4.11.92-2.4,3.1-2.82,4.86-2.14,2.02.77,3.04,2.71,2.23,4.82-.98,2.54-3.18,2.73-4.82,2.1-.11-.04-.2-.08-.33-.13l2.16-5.63ZM540.37,384.95c.82.25,2.14.27,2.77-1.39.53-1.38-.07-2.38-1.12-2.91l-1.65,4.3Z"/>
    <path class="st2" d="M539.69,389.24c.59.25,1.2.5,1.81.74l-.51,1.21c-.2-.06-.91-.33-1.51-.58.83.85,1.1,2.1.54,3.38l-1.19-.5c.66-1.51.23-3.06-1.72-3.88l-2.76-1.17.52-1.24,4.82,2.03Z"/>
    <path class="st2" d="M538.57,396.81c-1.77-.09-5.62-.13-6.43-.2h0c.47.45,1.38,1.39,4.39,4.7l-.57,1.26-5.23-5.84.61-1.34,7.85.09-.61,1.33Z"/>
    <path class="st2" d="M534.83,404.82l-.59,1.21-6.45-3.15.59-1.21,6.45,3.14ZM537.96,406.35l-.59,1.21-1.46-.71.59-1.21,1.46.71Z"/>
    <path class="st2" d="M531.1,408.3c.54.28,1.13.59,1.6.82l-.6,1.16c-.23-.09-.77-.35-1.2-.57.47.59.86,1.64.15,3-.78,1.49-2.2,1.97-3.94,1.07l-3.86-2.01.63-1.2,3.65,1.9c1.04.55,2.08.58,2.69-.6.69-1.32.02-2.49-1.45-3.26l-3.04-1.59.62-1.2,4.74,2.48Z"/>
    <path class="st2" d="M519.09,421.11c-2.34-1.34-3.27-2.9-1.81-5.47,1.39-2.45,3.09-2.15,3.89-1.85l-.68,1.2c-.74-.17-1.56-.04-2.3,1.25-1.04,1.82-.04,2.8,1.5,3.68l.34.19c-.51-.79-.6-1.73.14-3.03,1-1.76,3.08-2.19,4.85-1.18,2,1.14,2.54,3.37,1.58,5.05-.81,1.43-1.79,1.64-2.38,1.55.3.18.77.46.94.58l-.64,1.13c-.6-.36-1.2-.7-1.81-1.04l-3.61-2.06ZM524.37,417.13c-1.28-.73-2.69-.42-3.39.8-.74,1.3-.38,2.55,1.09,3.39,1.45.83,2.69.55,3.41-.73.83-1.45.05-2.79-1.12-3.46Z"/>
    <path class="st2" d="M520.34,431.04l-.76,1.2,1.94,1.24-.73,1.14-1.94-1.24-1.01,1.58-.9-.57,1.01-1.57-3.31-2.11c-.69-.44-1.11-.46-1.53.2-.11.18-.26.43-.33.63l-.84-.54c.08-.33.27-.66.49-1.01.8-1.25,1.6-1.28,2.79-.52l3.45,2.2.76-1.2.9.57Z"/>
    <path class="st2" d="M518.47,440.36l-3.95-2.68c.29.51.72,1.59-.26,3.03-.92,1.36-2.36,1.69-4.04.55l-3.58-2.43.76-1.12,3.41,2.31c1,.67,1.99.82,2.74-.29.85-1.25.25-2.53-.99-3.37l-2.92-1.97.75-1.12,8.81,5.97-.75,1.11Z"/>
    <path class="st2" d="M506.92,444.03c-1.15-.75-2.51-.6-3.37.57-.66.9-.66,1.67-.33,2.39l-.8,1.08c-.63-.94-.98-2.45.29-4.17,1.52-2.07,3.72-1.9,5.24-.79,1.74,1.28,2.21,3.41.87,5.23-1.61,2.19-3.78,1.78-5.19.75-.1-.07-.17-.13-.28-.21l3.56-4.85ZM504.96,448.32c.72.45,1.99.82,3.03-.61.87-1.18.56-2.3-.31-3.1l-2.72,3.7Z"/>
    <path class="st2" d="M503.41,459.84l-.9,1.09-6.82-5.61-3.84,4.68-.8-.93,4.6-5.6,7.76,6.37Z"/>
    <path class="st2" d="M487.32,468.72c-1.49-1.32-1.97-3.48-.27-5.4,1.61-1.81,3.85-1.64,5.33-.32,1.54,1.36,1.88,3.59.28,5.39-1.65,1.85-3.93,1.58-5.34.33ZM491.46,464.03c-1.02-.9-2.57-1.12-3.62.06-1.09,1.23-.7,2.63.37,3.58,1.08.95,2.59,1.14,3.65-.05,1.08-1.22.67-2.63-.41-3.59Z"/>
    <path class="st2" d="M486.56,471.94c.47.44.95.9,1.43,1.33l-.9.95c-.17-.13-.74-.63-1.21-1.07.48,1.09.3,2.34-.67,3.35l-.94-.89c1.15-1.19,1.29-2.78-.25-4.23l-2.18-2.05.92-.98,3.8,3.58Z"/>
    <path class="st2" d="M480.81,485.6l-6.04-6.04c-.49-.49-.98-.98-1.48-1.46l.92-.92c.24.19.56.48.81.73-.18-.69-.22-1.6.95-2.77,1.46-1.46,3.54-1.36,5.08.18,1.66,1.66,1.46,3.96.14,5.28-1.19,1.19-2.14,1.06-2.52.96l3.1,3.1-.95.95ZM480.08,476.31c-.93-.93-2.42-1.29-3.52-.18-1.2,1.2-.92,2.47.19,3.59s2.25,1.47,3.52.19c1.15-1.15.76-2.65-.19-3.6Z"/>
    <path class="st2" d="M470.09,478.38c.55,1.61,1.28,2.89,2.06,3.84l-1.04.98c-.75-.95-1.65-2.64-1.9-4l.87-.83ZM474.08,484.23l1.53,1.62-1.09,1.02-1.53-1.62,1.09-1.03Z"/>
    <path class="st2" d="M466.64,491.34c.43.49.85.99,1.29,1.46l-.99.86c-.16-.15-.67-.7-1.1-1.19.37,1.13.06,2.36-1,3.27l-.85-.97c1.26-1.07,1.55-2.64.17-4.23l-1.96-2.26,1.02-.89,3.42,3.94Z"/>
    <path class="st2" d="M459.59,494.82c-.93-1.02-2.29-1.21-3.41-.29-.87.71-1.06,1.46-.92,2.24l-1.04.85c-.38-1.07-.34-2.62,1.32-3.98,1.99-1.63,4.08-.91,5.28.55,1.37,1.68,1.29,3.86-.46,5.29-2.11,1.73-4.11.79-5.22-.56-.08-.1-.14-.17-.22-.28l4.67-3.81ZM456.61,498.48c.59.62,1.72,1.29,3.09.17,1.14-.93,1.11-2.1.47-3.08l-3.56,2.91Z"/>
    <path class="st2" d="M453.98,504.3l-4.55-5.85c-1.08-1.38-1.6-2.67.16-4.04.07-.05.13-.1.16-.12l.67.87s-.07.06-.11.09c-.8.62-.68,1.26,0,2.14l4.73,6.09-1.07.83ZM456.19,504.95l1,1.28-1.05.82-.99-1.28,1.05-.82Z"/>
    <path class="st2" d="M443.33,507.77c-1.18-1.6-1.2-3.81.87-5.33,1.95-1.43,4.1-.79,5.27.81,1.22,1.65,1.09,3.9-.86,5.33-2,1.47-4.16.73-5.29-.8ZM448.36,504.06c-.8-1.1-2.28-1.64-3.55-.71-1.32.97-1.23,2.42-.38,3.58.85,1.16,2.29,1.66,3.58.72,1.31-.96,1.2-2.43.35-3.59Z"/>
    <path class="st2" d="M443.01,512.33l-1.1.77-4.08-5.88,1.11-.77,4.07,5.88ZM444.99,515.19l-1.1.76-.92-1.33,1.1-.76.92,1.33Z"/>
    <path class="st2" d="M430.61,514.73c-.42-1.28-.11-2.85,1.59-3.97,2.13-1.4,4.1-.64,5.22,1.07,1.12,1.7.93,3.94-1.08,5.26-2.02,1.33-3.62.54-4.27-.17l1.12-.74c.57.42,1.45.72,2.56-.01,1.26-.83,1.38-2.25.53-3.57-.82-1.25-2.19-1.78-3.48-.93-.97.64-1.21,1.44-1.07,2.31l-1.12.74Z"/>
    <path class="st2" d="M430.84,520.38l-1.14.71-3.78-6.1,1.15-.71,3.77,6.1ZM432.67,523.34l-1.14.71-.85-1.38,1.15-.71.85,1.38Z"/>
    <path class="st2" d="M425.87,521.32c.3.53.64,1.1.92,1.56l-1.13.66c-.15-.2-.46-.71-.71-1.12.08.75-.15,1.85-1.48,2.63-1.46.85-2.92.5-3.91-1.2l-2.2-3.78,1.18-.68,2.07,3.57c.59,1.02,1.45,1.6,2.61.93,1.29-.75,1.36-2.11.52-3.54l-1.73-2.97,1.17-.68,2.7,4.64Z"/>
    <path class="st2" d="M408.8,525.76c-1.27-2.38-1.22-4.19,1.39-5.57,2.48-1.32,3.75-.16,4.26.52l-1.21.64c-.53-.54-1.3-.87-2.61-.17-1.85.98-1.52,2.33-.69,3.9l.18.34c-.01-.94.42-1.78,1.73-2.48,1.78-.95,3.77-.2,4.72,1.58,1.08,2.02.35,4.19-1.36,5.1-1.45.77-2.38.43-2.83.04.16.31.41.8.48.99l-1.14.61c-.31-.62-.64-1.23-.96-1.84l-1.95-3.66ZM415.37,525.22c-.69-1.3-2.04-1.79-3.29-1.13-1.32.71-1.68,1.95-.88,3.44.79,1.47,1.97,1.9,3.27,1.2,1.47-.78,1.53-2.33.9-3.51Z"/>
    <path class="st2" d="M403.76,535.21l-1.22.58-3.06-6.48,1.22-.58,3.06,6.48ZM405.25,538.36l-1.22.58-.69-1.46,1.22-.58.69,1.46Z"/>
    <path class="st2" d="M398.67,535.62c.25.55.52,1.17.74,1.65l-1.2.53c-.13-.21-.38-.75-.58-1.19,0,.76-.35,1.83-1.76,2.44-1.54.68-2.96.17-3.76-1.63l-1.76-3.99,1.24-.55,1.67,3.77c.48,1.08,1.27,1.75,2.49,1.21,1.37-.61,1.58-1.94.9-3.46l-1.39-3.15,1.23-.55,2.17,4.91Z"/>
    <path class="st2" d="M384.98,547.07l-1.67-4.46c-.05.58-.34,1.71-1.95,2.32-1.53.58-2.89.02-3.61-1.88l-1.52-4.04,1.27-.48,1.45,3.86c.43,1.13,1.14,1.82,2.4,1.35,1.42-.53,1.67-1.92,1.14-3.32l-1.23-3.29,1.26-.47,3.74,9.95-1.26.47Z"/>
    <path class="st2" d="M367.45,545.78c-.63-1.89.02-4,2.47-4.82,2.3-.77,4.16.5,4.79,2.39.65,1.95-.17,4.05-2.46,4.82-2.36.79-4.2-.59-4.8-2.39ZM373.4,543.78c-.43-1.29-1.67-2.26-3.17-1.76-1.56.52-1.92,1.93-1.46,3.29s1.68,2.29,3.19,1.79,1.9-1.95,1.44-3.32Z"/>
    <path class="st2" d="M362.71,544.59l-1.19-4.04,1.3-.38,2.4,8.19c.17.57.34,1.15.52,1.72l-1.26.37c-.09-.19-.24-.65-.39-1.17-.19.84-.81,1.73-2.25,2.15-1.86.55-3.66-.58-4.24-2.57-.66-2.25.45-4.22,2.32-4.76,1.43-.42,2.24.01,2.79.49ZM358.92,548.41c.36,1.22,1.44,2.27,2.99,1.82,1.6-.47,1.97-1.81,1.55-3.25s-1.49-2.29-3.01-1.84c-1.53.45-1.93,1.9-1.52,3.28Z"/>
    <path class="st2" d="M353.85,549.4c-.41-1.31-1.56-2.06-2.97-1.7-1.09.28-1.57.87-1.77,1.64l-1.31.34c.11-1.13.8-2.52,2.88-3.05,2.49-.64,4.08.89,4.55,2.72.54,2.1-.45,4.05-2.65,4.61-2.64.67-4.06-1.02-4.49-2.71-.03-.12-.06-.21-.08-.34l5.84-1.49ZM349.61,551.47c.27.81,1.01,1.9,2.73,1.46,1.42-.36,1.89-1.43,1.72-2.6l-4.45,1.14Z"/>
    <path class="st2" d="M345.1,546.19c-.37,1.79-.36,3.16-.2,4.41l-1.35.31c-.16-1.23-.05-3.15.4-4.46l1.14-.26Z"/>
    <path class="st2" d="M333.86,551.61l-.74-4.14,1.32-.24,1.49,8.39c.11.59.21,1.18.33,1.76l-1.29.23c-.06-.2-.17-.67-.26-1.21-.28.81-.99,1.63-2.46,1.89-1.9.34-3.57-.97-3.93-3.01-.41-2.31.91-4.13,2.83-4.47,1.46-.26,2.22.26,2.71.8ZM329.68,554.99c.22,1.25,1.18,2.41,2.77,2.13,1.64-.29,2.15-1.58,1.89-3.06-.26-1.48-1.23-2.43-2.79-2.15-1.56.28-2.12,1.67-1.86,3.09Z"/>
    <path class="st2" d="M318.95,554.67c-.1-.69-.26-1.59-.31-1.75l1.27-.18c.09.25.19.8.23,1.03.27-.79,1.01-1.4,2.51-1.61,2.01-.28,2.92.84,3.06,1.9.25,1.82-1.33,2.55-3.36,2.84-.86.12-1.49.2-1.73.24l.05.38c.11.78.54,1.46,2.06,1.25,1.36-.19,1.6-.83,1.65-1.5l1.34-.18c.04.95-.4,2.36-2.84,2.7-2.59.36-3.34-.83-3.5-2l-.43-3.11ZM320.49,556.2c.22-.03.7-.09,1.7-.23,1.63-.22,2.35-.7,2.21-1.64-.1-.71-.7-1.23-1.88-1.07-1.89.26-2.24,1.44-2.08,2.63l.04.31Z"/>
    <path class="st2" d="M317.13,560.35l-1.42.16.26,2.3-1.35.15-.26-2.3-1.86.21-.12-1.06,1.86-.21-.43-3.91c-.09-.82-.34-1.16-1.12-1.07-.21.02-.49.07-.7.14l-.11-.99c.31-.15.68-.21,1.09-.25,1.48-.17,2,.45,2.16,1.85l.45,4.08,1.42-.16.12,1.06Z"/>
    <path class="st2" d="M309.82,561.1l-1.34.12-.66-7.14,1.34-.12.66,7.14ZM310.13,564.57l-1.34.12-.15-1.61,1.34-.12.15,1.61Z"/>
    <path class="st2" d="M303.9,557.7c-.16-1.37-1.16-2.32-2.61-2.22-1.12.07-1.71.57-2.05,1.29l-1.35.09c.32-1.09,1.25-2.33,3.4-2.47,2.57-.17,3.86,1.64,3.98,3.52.14,2.16-1.19,3.9-3.45,4.04-2.72.18-3.81-1.75-3.92-3.5,0-.12-.01-.21-.02-.36l6.02-.39ZM299.34,558.96c.12.85.65,2.05,2.42,1.94,1.47-.1,2.13-1.06,2.18-2.24l-4.6.3Z"/>
    <path class="st2" d="M295.1,560.28c.02.61.03,1.27.06,1.81l-1.31.03c-.03-.25-.07-.84-.09-1.32-.29.7-1.02,1.55-2.55,1.59-1.68.04-2.8-.96-2.85-2.93l-.12-4.36,1.36-.04.11,4.12c.03,1.18.51,2.1,1.84,2.06,1.49-.04,2.19-1.19,2.15-2.85l-.09-3.44,1.35-.03.14,5.36Z"/>
    <path class="st2" d="M285.79,562.34l-1.42-.02-.04,2.3-1.35-.02.03-2.3-1.87-.03.02-1.06,1.87.03.06-3.92c.01-.82-.19-1.19-.97-1.2-.21,0-.5,0-.71.05l.02-.99c.33-.11.7-.12,1.11-.11,1.49.02,1.93.69,1.9,2.1l-.06,4.09,1.42.02-.02,1.06Z"/>
    <path class="st2" d="M273.05,565.59l-1.35-.05.06-1.62,1.35.05-.06,1.62ZM273.18,562.11l-1.35-.05.27-7.17,1.35.05-.27,7.17Z"/>
    <path class="st2" d="M268.41,560.12c-.04.61-.08,1.27-.1,1.81l-1.31-.09c-.01-.25,0-.84.03-1.33-.35.67-1.16,1.46-2.69,1.36-1.68-.11-2.71-1.22-2.58-3.18l.28-4.36,1.36.09-.27,4.12c-.08,1.18.31,2.14,1.65,2.23,1.49.1,2.3-.99,2.41-2.65l.22-3.44,1.35.09-.35,5.36Z"/>
    <path class="st2" d="M253.67,560.7l-1.41-.17-.26,2.29-1.34-.16.26-2.29-1.85-.21.12-1.05,1.85.21.45-3.89c.1-.82-.07-1.2-.85-1.29-.21-.02-.49-.04-.71-.02l.11-.99c.33-.08.71-.05,1.12,0,1.47.17,1.84.88,1.68,2.28l-.47,4.07,1.41.16-.12,1.05Z"/>
    <path class="st2" d="M246.67,557.91c-.09.64-.18,1.29-.25,1.94l-1.3-.18c0-.21.08-.96.17-1.61-.61,1.03-1.74,1.6-3.13,1.39l.18-1.28c1.63.25,3.01-.56,3.3-2.66l.41-2.97,1.34.18-.72,5.18Z"/>
    <path class="st2" d="M238.99,562.27l-1.33-.21.26-1.6,1.33.22-.26,1.6ZM239.55,558.83l-1.33-.22,1.15-7.08,1.33.22-1.15,7.08Z"/>
    <path class="st2" d="M234.12,561.48l-1.33-.25.86-4.52c-.46.48-1.35,1.08-2.86.79-1.97-.37-3.1-2.19-2.71-4.24.45-2.37,2.2-3.57,4.21-3.19,1.51.29,2.08,1.07,2.32,1.77.08-.34.17-.84.25-1.09l1.27.24c-.18.89-.32,1.62-.47,2.42l-1.53,8.05ZM229.46,553.47c-.23,1.2.2,2.66,1.84,2.97,1.61.3,2.6-.67,2.88-2.14.3-1.6-.43-2.79-1.89-3.06-1.65-.31-2.56.85-2.83,2.24Z"/>
    <path class="st2" d="M219.19,549.61c.15-.68.31-1.36.45-2.04l1.27.29c-.02.2-.11.7-.22,1.19.53-.71,1.29-1.16,2.82-.81,1.49.34,2.45,1.41,1.99,3.45l-.98,4.34-1.32-.3.93-4.1c.24-1.06.03-2.07-1.22-2.36-1.51-.34-2.35.39-2.81,2.43l-.72,3.16-1.32-.3,1.12-4.96Z"/>
    <path class="st2" d="M216.48,546.75l-2.64,10.32-1.31-.34,2.64-10.32,1.3.34Z"/>
    <path class="st2" d="M205.45,545.56c.19-.67.4-1.56.42-1.72l1.23.35c-.02.27-.15.8-.21,1.03.57-.61,1.49-.87,2.94-.45,1.95.56,2.33,1.94,2.03,2.97-.5,1.76-2.25,1.79-4.21,1.23-.83-.24-1.44-.41-1.68-.48l-.11.37c-.21.75-.09,1.55,1.37,1.97,1.32.38,1.8-.11,2.11-.71l1.3.37c-.34.89-1.32,2-3.69,1.32-2.51-.72-2.71-2.1-2.39-3.24l.86-3.02ZM206.25,547.58c.21.07.68.2,1.65.47,1.58.45,2.42.31,2.69-.61.2-.68-.15-1.4-1.29-1.73-1.83-.52-2.63.41-2.96,1.57l-.08.3Z"/>
    <path class="st2" d="M201.47,549.98l-1.36-.43-.7,2.2-1.29-.4.7-2.2-1.78-.56.32-1.01,1.78.56,1.18-3.74c.25-.78.16-1.19-.59-1.43-.2-.06-.48-.14-.69-.16l.3-.94c.34-.01.71.08,1.1.21,1.42.45,1.65,1.22,1.22,2.56l-1.24,3.91,1.36.43-.32,1.01Z"/>
    <path class="st2" d="M193.28,550.98l-1.27-.44.53-1.53,1.27.44-.53,1.53ZM194.41,547.69l-1.27-.44,2.32-6.78,1.27.44-2.32,6.78Z"/>
    <path class="st2" d="M184.41,540.3c.69-1.87,2.52-3.1,4.94-2.21,2.28.84,2.92,2.99,2.24,4.86-.71,1.93-2.66,3.06-4.93,2.22-2.33-.86-2.9-3.08-2.25-4.87ZM190.29,542.46c.47-1.28.11-2.81-1.37-3.35-1.54-.57-2.7.31-3.2,1.65-.5,1.35-.12,2.83,1.37,3.39,1.53.56,2.7-.34,3.2-1.68Z"/>
    <path class="st2" d="M181.04,540.86c-.23.56-.49,1.18-.68,1.67l-1.21-.5c.07-.24.28-.79.46-1.24-.55.52-1.56,1-2.98.41-1.55-.64-2.16-2.02-1.41-3.83l1.66-4.03,1.25.52-1.57,3.8c-.45,1.09-.39,2.12.84,2.63,1.38.57,2.49-.2,3.12-1.73l1.31-3.17,1.25.52-2.05,4.95Z"/>
    <path class="st2" d="M175.61,530.68c-1.37,1.21-2.18,2.31-2.8,3.4l-1.26-.56c.61-1.08,1.84-2.54,2.99-3.31l1.07.48Z"/>
    <path class="st2" d="M157.98,526.9c.89-1,2.41-1.52,4.23-.61,2.28,1.14,2.6,3.22,1.69,5.04s-2.94,2.78-5.09,1.7c-2.16-1.08-2.28-2.85-1.99-3.77l1.2.6c-.08.71.1,1.61,1.29,2.21,1.35.67,2.64.06,3.34-1.33s.44-2.78-.94-3.47c-1.04-.52-1.85-.33-2.53.24l-1.2-.6Z"/>
    <path class="st2" d="M148.62,523.36c.96-1.75,2.95-2.7,5.21-1.46,2.13,1.17,2.45,3.39,1.5,5.13-.99,1.8-3.08,2.64-5.2,1.48-2.18-1.19-2.42-3.48-1.51-5.14ZM154.12,526.36c.65-1.19.52-2.76-.86-3.52-1.44-.79-2.72-.09-3.41,1.17-.69,1.26-.54,2.78.86,3.55,1.43.79,2.71.07,3.41-1.2Z"/>
    <path class="st2" d="M145.2,523.45c-.31.52-.65,1.09-.91,1.56l-1.13-.67c.1-.22.39-.74.63-1.16-.62.43-1.69.76-3.01-.02-1.45-.86-1.85-2.31-.85-3.99l2.23-3.75,1.17.69-2.11,3.54c-.6,1.01-.69,2.04.45,2.73,1.28.76,2.49.16,3.34-1.26l1.76-2.95,1.16.69-2.74,4.6Z"/>
    <path class="st2" d="M136.34,520.22l-1.2-.76-1.24,1.94-1.14-.73,1.24-1.94-1.58-1.01.57-.9,1.58,1.01,2.11-3.31c.44-.69.46-1.11-.2-1.53-.18-.11-.43-.26-.63-.33l.53-.84c.34.08.66.27,1.01.49,1.25.8,1.28,1.6.52,2.79l-2.2,3.45,1.2.76-.57.9Z"/>
    <path class="st2" d="M128.2,519.11l-1.12-.75.9-1.35,1.12.74-.9,1.35ZM130.13,516.21l-1.12-.75,3.96-5.96,1.12.75-3.96,5.96Z"/>
    <path class="st2" d="M127.13,512.04c-.35.49-.73,1.04-1.03,1.48l-1.07-.76c.12-.21.44-.71.72-1.11-.65.38-1.74.63-3-.25-1.37-.97-1.67-2.44-.54-4.05l2.51-3.56,1.11.78-2.37,3.36c-.68.96-.85,1.99.24,2.75,1.22.86,2.47.35,3.43-1l1.98-2.8,1.1.78-3.09,4.38Z"/>
    <path class="st2" d="M115.49,499.48c.42-.56.85-1.11,1.26-1.67l1.04.79c-.1.18-.39.59-.69,1,.78-.43,1.65-.52,2.9.44,1.21.92,1.65,2.3.38,3.96l-2.7,3.54-1.07-.82,2.55-3.35c.66-.86.89-1.87-.14-2.66-1.23-.93-2.3-.62-3.57,1.04l-1.96,2.59-1.08-.82,3.08-4.05Z"/>
    <path class="st2" d="M107.55,504.07l-1.05-.84,1.01-1.26,1.05.84-1.01,1.26ZM109.73,501.36l-1.05-.84,4.49-5.58,1.05.84-4.49,5.58Z"/>
    <path class="st2" d="M107.12,496.95c-.39.46-.82.97-1.16,1.39l-1-.85c.14-.21.51-.67.82-1.05-.68.33-1.8.48-2.97-.52-1.28-1.09-1.44-2.59-.17-4.09l2.83-3.33,1.04.88-2.67,3.14c-.76.9-1.03,1.91,0,2.77,1.14.97,2.43.57,3.51-.69l2.23-2.62,1.03.88-3.48,4.09Z"/>
    <path class="st2" d="M97.3,482.38c1.82-1.99,3.54-2.55,5.72-.55,2.07,1.9,1.4,3.48.94,4.19l-1.01-.93c.33-.68.39-1.51-.71-2.52-1.54-1.41-2.71-.66-3.91.65l-.26.29c.88-.32,1.82-.2,2.92.81,1.49,1.37,1.45,3.48.08,4.98-1.55,1.69-3.84,1.73-5.26.42-1.21-1.11-1.19-2.1-.98-2.66-.24.25-.62.65-.77.78l-.96-.88c.48-.5.95-1.01,1.42-1.52l2.8-3.05ZM100,488.4c.99-1.09,1.01-2.52-.03-3.48-1.1-1.01-2.39-.93-3.54.31-1.13,1.23-1.13,2.49-.05,3.48,1.23,1.12,2.71.67,3.61-.32Z"/>
    <path class="st2" d="M89.72,476.74c.42-.78.27-1.65-.64-2.57-.97-.98-1.65-.99-2.11-.54-.43.42-.47.96.66,2.41,1.55,2.02,1.25,2.97.61,3.6-.66.65-2.02.95-3.63-.68-1.74-1.77-1.32-3.17-.76-3.82l.95.96c-.23.38-.53,1.08.58,2.2.93.95,1.54.75,1.83.46.38-.37.37-.84-.62-2.16-1.63-2.18-1.39-3.12-.63-3.87.92-.9,2.29-.88,3.92.77,1.47,1.49,1.69,2.98.81,4.2l-.95-.97Z"/>
    <path class="st2" d="M80.95,474.87l-.97-1.04-1.69,1.57-.92-.99,1.69-1.57-1.27-1.37.78-.72,1.27,1.37,2.87-2.66c.6-.56.73-.96.2-1.53-.14-.15-.34-.36-.52-.47l.73-.67c.3.16.57.42.85.72,1.01,1.09.83,1.87-.2,2.83l-3,2.78.97,1.04-.78.72Z"/>
    <path class="st2" d="M78.32,466.24c.98-.96,1.13-2.33.17-3.42-.74-.84-1.49-1-2.27-.83l-.89-1.01c1.06-.41,2.61-.43,4.02,1.18,1.7,1.93,1.06,4.05-.36,5.29-1.63,1.43-3.81,1.43-5.3-.27-1.8-2.04-.93-4.08.38-5.23.09-.08.16-.14.27-.23l3.98,4.53ZM74.54,463.39c-.6.61-1.23,1.76-.06,3.1.97,1.11,2.13,1.04,3.1.36l-3.03-3.45Z"/>
    <path class="st2" d="M69.71,453.72c.54-.44,1.22-1.05,1.33-1.18l.81.99c-.17.21-.58.58-.76.73.82-.18,1.72.13,2.68,1.31,1.28,1.57.8,2.92-.03,3.6-1.42,1.16-2.87.19-4.17-1.39-.55-.67-.95-1.16-1.1-1.35l-.3.24c-.61.5-.96,1.22,0,2.4.87,1.07,1.54.93,2.14.63l.85,1.04c-.79.54-2.23.89-3.78-1.02-1.65-2.02-1.03-3.27-.11-4.03l2.43-1.98ZM69.21,455.83c.14.17.44.55,1.08,1.33,1.04,1.27,1.81,1.64,2.55,1.03.55-.45.68-1.24-.07-2.16-1.21-1.47-2.39-1.17-3.33-.4l-.24.2Z"/>
    <path class="st2" d="M56.38,450.9l6.83-5.16c.55-.41,1.11-.84,1.65-1.27l.79,1.04c-.22.21-.56.48-.84.7.71-.08,1.61,0,2.62,1.32,1.25,1.65.86,3.7-.87,5.01-1.88,1.42-4.13.9-5.26-.59-1.01-1.34-.76-2.26-.61-2.63l-3.5,2.64-.81-1.08ZM65.7,451.46c1.05-.8,1.61-2.22.67-3.47-1.03-1.36-2.33-1.26-3.59-.3-1.26.95-1.76,2.03-.68,3.47.98,1.3,2.52,1.12,3.6.3Z"/>
    <path class="st2" d="M62.69,441.44l-4.98,3.54.78,1.1-.87.62-.78-1.1-.79.56c-1.33.94-2.56.94-3.52-.43-.21-.29-.36-.55-.43-.74l.9-.64c.08.18.22.41.32.56.56.79,1.06.77,2,.1l.73-.52-.97-1.37.87-.62.97,1.37,4.98-3.54.79,1.1Z"/>
    <path class="st2" d="M54.67,432.91c.58-.39,1.31-.93,1.44-1.04l.71,1.07c-.19.19-.63.52-.82.66.83-.1,1.7.29,2.55,1.56,1.13,1.68.52,2.99-.37,3.59-1.53,1.02-2.88-.08-4.02-1.78-.48-.72-.84-1.25-.97-1.45l-.32.21c-.65.44-1.07,1.12-.22,2.39.76,1.14,1.45,1.08,2.07.83l.75,1.12c-.84.46-2.3.67-3.67-1.37-1.45-2.17-.71-3.36.27-4.02l2.61-1.74ZM53.98,434.96c.12.19.39.59.95,1.42.91,1.37,1.65,1.81,2.44,1.28.59-.4.8-1.17.14-2.16-1.06-1.58-2.27-1.39-3.27-.72l-.26.18Z"/>
    <path class="st2" d="M52.19,429.74c.59-.66.62-1.55-.06-2.65-.73-1.17-1.39-1.33-1.93-1-.51.32-.67.84.11,2.5,1.06,2.31.56,3.17-.2,3.64-.79.49-2.18.48-3.39-1.47-1.31-2.11-.58-3.38.11-3.89l.71,1.15c-.31.32-.75.94.08,2.28.7,1.13,1.33,1.07,1.68.85.45-.28.55-.74-.13-2.25-1.11-2.48-.67-3.35.24-3.91,1.1-.68,2.43-.35,3.65,1.62,1.1,1.78.99,3.28-.14,4.27l-.72-1.16Z"/>
    <path class="st2" d="M43.97,425.9l-.72-1.23-1.99,1.16-.68-1.17,1.99-1.16-.94-1.61.92-.53.94,1.61,3.38-1.98c.71-.41.92-.78.52-1.45-.11-.18-.26-.43-.41-.58l.85-.5c.26.22.47.54.67.89.75,1.28.4,2-.81,2.71l-3.53,2.06.72,1.23-.91.53Z"/>
    <path class="st2" d="M46.57,416.08l-9.3,5.2-.66-1.18,9.3-5.2.66,1.18Z"/>
    <path class="st2" d="M37.71,414.85c2.4-2.98,3.8-4.65,4.24-5.13v-.02c-.75.11-2.91.42-6.53.77l-.65-1.24,7.33-.68c3.32-.31,4.08-.19,4.92,1.41.12.23.29.62.37.86l-1.05.55c-.1-.26-.23-.56-.32-.73-.45-.85-.98-1-2.53-.92l-5.09,6.43-.69-1.31Z"/>
    <path class="st2" d="M28.15,403.49l-.57-1.22,1.46-.68.57,1.22-1.46.68ZM31.29,402.02l-.57-1.22,6.48-3.04.57,1.22-6.48,3.04Z"/>
    <path class="st2" d="M30.91,396.92c-.55.24-1.17.51-1.65.74l-.52-1.2c.21-.12.75-.38,1.19-.58-.76-.01-1.82-.36-2.44-1.77-.67-1.54-.16-2.96,1.64-3.74l3.99-1.75.54,1.24-3.77,1.65c-1.08.47-1.75,1.26-1.22,2.48.6,1.37,1.93,1.58,3.45.92l3.15-1.38.54,1.23-4.91,2.15Z"/>
    <path class="st2" d="M28.5,379.82l3.94-1.46.47,1.26-8,2.96c-.56.2-1.12.41-1.67.63l-.46-1.23c.18-.1.63-.28,1.14-.47-.85-.13-1.78-.68-2.3-2.09-.67-1.81.32-3.68,2.27-4.4,2.2-.82,4.23.16,4.91,1.99.52,1.39.14,2.24-.3,2.81ZM24.43,376.3c-1.2.44-2.17,1.58-1.61,3.1.58,1.57,1.94,1.84,3.35,1.32,1.41-.52,2.18-1.65,1.63-3.13-.55-1.49-2.02-1.79-3.37-1.29Z"/>
    <path class="st2" d="M21.55,372.77c-.61.2-1.24.41-1.85.63l-.41-1.24c.19-.09.9-.35,1.52-.56-1.19-.09-2.2-.85-2.64-2.18l1.22-.41c.5,1.57,1.84,2.45,3.85,1.78l2.84-.95.43,1.28-4.96,1.65Z"/>
    <path class="st2" d="M20.93,359.28c.67-.2,1.53-.5,1.68-.57l.37,1.23c-.24.13-.75.31-.98.38.82.15,1.54.78,1.97,2.23.58,1.94-.38,3.01-1.41,3.31-1.76.53-2.72-.93-3.31-2.88-.25-.83-.43-1.44-.5-1.67l-.36.11c-.75.22-1.36.75-.92,2.22.39,1.31,1.06,1.45,1.73,1.4l.39,1.29c-.94.19-2.39-.04-3.1-2.4-.75-2.5.31-3.41,1.44-3.75l3-.9ZM19.67,361.04c.06.21.2.67.49,1.64.47,1.57,1.04,2.21,1.96,1.93.68-.2,1.11-.88.77-2.02-.54-1.82-1.76-2-2.91-1.65l-.3.09Z"/>
    <path class="st2" d="M14.64,356.89c3.02-2.37,4.76-3.69,5.29-4.05v-.02c-.76-.07-2.94-.25-6.55-.71l-.36-1.36,7.31.98c3.31.44,4.03.73,4.49,2.48.07.26.15.67.17.93l-1.15.3c-.03-.28-.1-.6-.15-.78-.25-.94-.73-1.19-2.26-1.47l-6.41,5.13-.38-1.44Z"/>
    <path class="st2" d="M16.06,346.59c1.33-.38,2.11-1.51,1.78-2.93-.25-1.1-.83-1.6-1.6-1.82l-.3-1.32c1.13.14,2.5.87,2.97,2.96.57,2.51-1.01,4.07-2.85,4.48-2.11.48-4.03-.56-4.53-2.77-.6-2.66,1.13-4.04,2.84-4.42.12-.03.21-.05.35-.07l1.33,5.89ZM14.1,342.28c-.82.25-1.93.96-1.53,2.69.33,1.44,1.38,1.94,2.55,1.8l-1.02-4.49Z"/>
    <path class="st2" d="M12.27,338.28c-.63.12-1.28.25-1.91.38l-.25-1.28c.2-.07.94-.24,1.57-.36-1.17-.25-2.07-1.12-2.33-2.5l1.26-.25c.3,1.62,1.5,2.66,3.57,2.26l2.93-.57.26,1.32-5.12,1Z"/>
    <path class="st2" d="M11.19,331.28l-2.19.37-.25-1.47,2.19-.37.25,1.47ZM18.26,331.19c-1.64-.43-3.1-.54-4.33-.4l-.24-1.41c1.2-.09,3.11.09,4.37.63l.2,1.18Z"/>
    <path class="st2" d="M3.14,314.89l8.5-1.04c.68-.09,1.38-.17,2.06-.27l.16,1.3c-.3.07-.72.14-1.08.19.65.29,1.4.81,1.6,2.46.25,2.06-1.11,3.63-3.27,3.9-2.34.29-4.03-1.29-4.25-3.14-.21-1.67.48-2.34.79-2.58l-4.35.54-.17-1.34ZM10.92,320.05c1.31-.16,2.51-1.12,2.32-2.67-.21-1.69-1.38-2.25-2.96-2.06-1.56.19-2.54.87-2.32,2.66.2,1.61,1.62,2.23,2.96,2.07Z"/>
    <path class="st2" d="M2.76,311.23l-.13-1.34,1.61-.15.13,1.34-1.61.15ZM6.23,310.9l-.13-1.34,7.14-.68.13,1.34-7.14.68Z"/>
    <path class="st2" d="M10.73,305.05c.83-.31,1.27-1.08,1.18-2.37-.1-1.38-.61-1.83-1.25-1.79-.6.04-.98.43-1.07,2.27-.14,2.54-.99,3.07-1.88,3.14-.93.06-2.16-.59-2.32-2.89-.17-2.48,1.06-3.27,1.92-3.4l.09,1.35c-.42.14-1.1.48-1,2.05.09,1.32.68,1.57,1.09,1.54.53-.03.83-.39.94-2.05.18-2.71.97-3.27,2.04-3.35,1.29-.09,2.32.83,2.47,3.14.14,2.09-.66,3.36-2.12,3.71l-.09-1.36Z"/>
    <path class="st2" d="M5.26,297.89l-.06-1.42-2.3.1-.06-1.35,2.31-.1-.08-1.87,1.06-.04.08,1.87,3.92-.16c.82-.03,1.18-.26,1.14-1.04,0-.21-.03-.49-.09-.7l.99-.04c.13.32.16.69.18,1.11.06,1.48-.58,1.96-1.99,2.02l-4.1.17.06,1.42-1.06.04Z"/>
    <path class="st2" d="M6.94,290.52c-.64.01-1.3.02-1.95.05l-.03-1.31c.21-.03.96-.07,1.61-.08-1.11-.44-1.85-1.47-1.86-2.87l1.29-.02c.01,1.65,1.03,2.88,3.13,2.84l2.99-.06.03,1.35-5.22.1Z"/>
    <path class="st2" d="M1.42,283.56l.02-1.35,1.62.02-.02,1.35-1.62-.02ZM4.9,283.62l.02-1.35,7.17.11-.02,1.35-7.16-.11Z"/>
    <path class="st2" d="M1.44,278.78l.04-1.35,4.59.12c-.54-.37-1.27-1.16-1.23-2.69.05-2,1.66-3.41,3.75-3.35,2.4.07,3.86,1.6,3.81,3.63-.04,1.54-.72,2.22-1.38,2.57.35.02.86.04,1.11.07l-.03,1.29c-.91-.04-1.65-.06-2.46-.08l-8.18-.22ZM8.58,272.91c-1.22-.03-2.59.63-2.63,2.29-.04,1.64,1.08,2.45,2.57,2.49,1.63.04,2.68-.87,2.72-2.35.04-1.67-1.24-2.39-2.66-2.42Z"/>
    <path class="st2" d="M10.78,262.06c.7.04,1.39.09,2.09.12l-.08,1.3c-.2.01-.71,0-1.21-.03.79.41,1.34,1.09,1.24,2.66-.1,1.52-1,2.64-3.09,2.5l-4.45-.29.09-1.35,4.2.27c1.08.07,2.05-.29,2.14-1.58.1-1.55-.75-2.26-2.84-2.39l-3.24-.21.09-1.35,5.07.33Z"/>
    <path class="st2" d="M5.93,259.24l.13-1.42-2.3-.22.13-1.35,2.3.22.18-1.86,1.06.1-.18,1.86,3.91.37c.82.08,1.2-.09,1.28-.87.02-.21.04-.49,0-.71l.99.1c.08.33.06.71.02,1.12-.14,1.48-.85,1.86-2.25,1.73l-4.08-.39-.14,1.42-1.06-.1Z"/>
    <path class="st2" d="M3.23,251.53l.15-1.33,1.6.19-.15,1.33-1.6-.19ZM6.68,251.93l.15-1.34,7.11.82-.15,1.34-7.11-.82Z"/>
    <path class="st2" d="M9.02,247.33c-.6-.08-1.26-.18-1.79-.24l.19-1.3c.25,0,.84.07,1.32.13-.64-.4-1.36-1.27-1.14-2.79.24-1.67,1.42-2.61,3.37-2.33l4.33.62-.19,1.35-4.09-.58c-1.17-.17-2.16.15-2.35,1.47-.21,1.48.81,2.37,2.46,2.6l3.41.48-.19,1.34-5.32-.76Z"/>
    <path class="st2" d="M16.13,231.21c2.65.48,4.05,1.64,3.52,4.55-.5,2.77-2.2,3.05-3.06,3.03l.25-1.36c.76-.08,1.49-.48,1.76-1.94.38-2.06-.89-2.65-2.63-2.97l-.38-.07c.75.58,1.14,1.44.87,2.9-.36,1.99-2.18,3.09-4.18,2.72-2.26-.41-3.51-2.33-3.16-4.24.29-1.61,1.14-2.13,1.73-2.25-.34-.07-.89-.18-1.08-.24l.23-1.28c.68.14,1.36.26,2.04.39l4.09.75ZM12.47,236.71c1.45.27,2.68-.49,2.93-1.88.27-1.48-.49-2.53-2.15-2.83-1.64-.3-2.71.37-2.98,1.82-.3,1.64.87,2.65,2.2,2.89Z"/>
    <path class="st2" d="M11.63,222.35l.32-1.39-2.24-.52.3-1.31,2.24.52.42-1.82,1.03.24-.42,1.82,3.82.88c.8.19,1.2.07,1.38-.7.05-.2.1-.48.1-.7l.96.22c.04.34-.03.71-.12,1.11-.33,1.45-1.08,1.74-2.45,1.42l-3.99-.92-.32,1.39-1.03-.24Z"/>
    <path class="st2" d="M18.61,209.18c1.92.51,3.32,2.21,2.66,4.69-.62,2.34-2.7,3.19-4.61,2.68-1.98-.53-3.29-2.36-2.67-4.68.63-2.4,2.79-3.18,4.62-2.69ZM17.02,215.22c1.31.35,2.8-.16,3.2-1.68.42-1.59-.56-2.66-1.95-3.02-1.39-.37-2.83.15-3.23,1.68-.42,1.57.59,2.65,1.97,3.02Z"/>
    <path class="st2" d="M17.25,201.12l.43-1.36-2.2-.7.41-1.29,2.2.7.57-1.78,1.01.33-.57,1.78,3.74,1.2c.78.25,1.2.16,1.44-.58.06-.2.14-.48.16-.69l.95.3c0,.34-.09.71-.21,1.1-.45,1.41-1.22,1.64-2.57,1.21l-3.91-1.25-.43,1.36-1.01-.33Z"/>
    <path class="st2" d="M16.73,191.59l4.49,1.58c-.41-.41-1.1-1.36-.52-2.99.54-1.55,1.85-2.23,3.77-1.56l4.08,1.44-.45,1.28-3.89-1.37c-1.14-.4-2.13-.29-2.57.97-.5,1.43.4,2.51,1.81,3.01l3.32,1.17-.45,1.27-10.03-3.53.45-1.27Z"/>
    <path class="st2" d="M26.95,185.04c1.31.43,2.59-.06,3.12-1.41.41-1.04.21-1.78-.3-2.4l.49-1.26c.85.75,1.57,2.12.79,4.12-.94,2.39-3.11,2.79-4.87,2.1-2.01-.79-3.01-2.74-2.18-4.84,1-2.53,3.2-2.7,4.83-2.06.11.04.2.08.33.13l-2.21,5.61ZM27.75,180.38c-.81-.25-2.13-.29-2.78,1.36-.54,1.37.05,2.37,1.1,2.92l1.68-4.28Z"/>
    <path class="st2" d="M30.44,171.11c-.55-.25-1.16-.53-1.65-.74l.54-1.19c.24.08.78.31,1.23.5-.5-.57-.94-1.6-.3-2.99.7-1.53,2.09-2.09,3.88-1.27l3.96,1.81-.56,1.23-3.74-1.72c-1.07-.49-2.11-.47-2.66.74-.62,1.36.11,2.49,1.61,3.19l3.12,1.43-.56,1.23-4.87-2.23Z"/>
    <path class="st2" d="M36.99,162.07c1.26.55,2.58.18,3.23-1.12.5-1,.38-1.76-.07-2.42l.61-1.2c.78.82,1.37,2.25.4,4.17-1.16,2.29-3.36,2.49-5.04,1.64-1.93-.97-2.75-3-1.73-5.02,1.22-2.43,3.44-2.39,5-1.6.11.06.19.1.31.17l-2.71,5.38ZM38.22,157.51c-.79-.33-2.1-.48-2.89,1.1-.66,1.31-.17,2.37.82,3l2.07-4.1Z"/>
    <path class="st2" d="M41.41,153.47c1.24.59,2.57.27,3.27-1.01.54-.98.43-1.74.01-2.42l.65-1.18c.75.85,1.29,2.3.26,4.18-1.23,2.25-3.44,2.38-5.1,1.47-1.9-1.04-2.64-3.1-1.56-5.08,1.31-2.39,3.52-2.27,5.05-1.43.11.06.19.1.31.17l-2.9,5.29ZM42.8,148.95c-.78-.36-2.08-.55-2.93,1-.71,1.29-.25,2.36.72,3.03l2.21-4.04Z"/>
    <path class="st2" d="M42.96,135.97l7.35,4.38c.59.35,1.2.71,1.79,1.05l-.67,1.12c-.28-.12-.66-.33-.96-.51.34.62.61,1.49-.24,2.92-1.06,1.78-3.11,2.19-4.97,1.08-2.02-1.2-2.39-3.49-1.44-5.09.86-1.44,1.81-1.55,2.21-1.55l-3.76-2.24.69-1.16ZM45.95,144.81c1.13.68,2.66.65,3.46-.69.87-1.47.29-2.63-1.07-3.44-1.35-.81-2.55-.87-3.47.68-.83,1.4-.09,2.76,1.08,3.45Z"/>
    <path class="st2" d="M52.39,136.92c.85.24,1.66-.1,2.36-1.19.75-1.16.61-1.82.07-2.17-.5-.33-1.04-.25-2.21,1.17-1.63,1.95-2.62,1.87-3.37,1.38-.78-.5-1.37-1.76-.13-3.69,1.34-2.09,2.8-1.98,3.56-1.57l-.73,1.13c-.42-.14-1.17-.28-2.02,1.05-.72,1.11-.39,1.66-.05,1.88.45.29.9.18,1.97-1.08,1.76-2.06,2.73-2.04,3.63-1.46,1.08.7,1.36,2.04.1,3.98-1.13,1.75-2.53,2.3-3.91,1.7l.73-1.14Z"/>
    <path class="st2" d="M63.03,118.97c1.61,1.17,2.3,3.26.79,5.35-1.42,1.96-3.67,2-5.27.84-1.66-1.21-2.22-3.39-.8-5.34,1.46-2,3.75-1.96,5.29-.84ZM59.35,124.04c1.1.8,2.67.86,3.6-.41.96-1.33.44-2.68-.72-3.52-1.16-.85-2.69-.89-3.63.4-.96,1.32-.41,2.69.76,3.53Z"/>
    <path class="st2" d="M67.86,118.55l-4.84-3.73-.82,1.07-.84-.65.82-1.07-.77-.59c-1.29-.99-1.65-2.17-.63-3.49.22-.28.42-.5.58-.62l.88.67c-.15.12-.33.33-.44.47-.58.76-.43,1.23.49,1.94l.71.54,1.02-1.33.84.65-1.02,1.33,4.84,3.73-.82,1.07Z"/>
    <path class="st2" d="M68.3,106.45l.91-1.09-1.77-1.48.87-1.04,1.77,1.48,1.2-1.44.81.68-1.2,1.44,3.01,2.51c.63.53,1.04.6,1.54,0,.13-.16.31-.39.4-.58l.76.64c-.12.32-.35.62-.61.94-.95,1.14-1.75,1.06-2.83.16l-3.14-2.63-.91,1.09-.81-.68Z"/>
    <path class="st2" d="M71.36,97.48l3.57,3.16c-.22-.54-.5-1.67.65-2.97,1.09-1.22,2.56-1.37,4.08-.02l3.24,2.87-.9,1.01-3.08-2.74c-.9-.8-1.86-1.08-2.75-.08-1.01,1.13-.58,2.48.54,3.48l2.63,2.34-.89,1.01-7.96-7.07.89-1Z"/>
    <path class="st2" d="M83.32,95.26c1.05.9,2.42.92,3.42-.13.77-.81.87-1.58.63-2.33l.93-.98c.51,1.02.66,2.56-.82,4.12-1.77,1.86-3.94,1.41-5.31.11-1.57-1.5-1.76-3.67-.2-5.31,1.88-1.97,3.99-1.29,5.25-.08.09.08.16.15.25.25l-4.16,4.37ZM85.82,91.25c-.66-.55-1.87-1.07-3.09.21-1.01,1.07-.85,2.22-.08,3.12l3.18-3.33Z"/>
    <path class="st2" d="M94.51,85.54c.77.44,1.64.3,2.58-.59,1-.94,1.03-1.63.59-2.1-.41-.44-.95-.48-2.43.61-2.05,1.5-3,1.19-3.61.54-.64-.67-.91-2.04.76-3.62,1.81-1.7,3.2-1.25,3.84-.68l-.99.93c-.38-.24-1.07-.55-2.22.53-.97.91-.78,1.52-.5,1.82.37.39.83.39,2.18-.58,2.21-1.58,3.15-1.32,3.88-.55.89.94.83,2.31-.86,3.9-1.52,1.44-3.02,1.63-4.22.72l.99-.93Z"/>
    <path class="st2" d="M105.6,76.03c.46.53,1.09,1.18,1.22,1.29l-.96.85c-.22-.16-.6-.56-.76-.73.21.81-.07,1.72-1.21,2.73-1.52,1.33-2.89.9-3.6.1-1.21-1.38-.3-2.86,1.24-4.21.65-.57,1.13-.99,1.31-1.15l-.25-.29c-.52-.59-1.26-.92-2.4.09-1.03.91-.87,1.57-.55,2.16l-1.01.89c-.56-.77-.96-2.19.89-3.81,1.96-1.72,3.24-1.15,4.02-.26l2.07,2.36ZM103.47,75.61c-.17.15-.53.46-1.29,1.13-1.23,1.08-1.57,1.87-.94,2.59.47.54,1.26.64,2.16-.15,1.43-1.26,1.08-2.43.28-3.34l-.21-.24Z"/>
    <path class="st2" d="M102.48,67.05l1.03-.86,1.04,1.24-1.03.86-1.04-1.24ZM104.72,69.72l1.03-.86,4.59,5.5-1.03.86-4.59-5.5Z"/>
    <path class="st2" d="M109.58,68.03c-.37-.47-.79-1-1.13-1.41l1.03-.81c.17.18.56.63.86,1.01-.18-.73-.11-1.85,1.1-2.8,1.32-1.04,2.82-.9,4.04.65l2.7,3.43-1.07.84-2.55-3.24c-.73-.93-1.66-1.38-2.71-.56-1.17.92-1.04,2.27-.02,3.57l2.12,2.7-1.06.83-3.31-4.21Z"/>
    <path class="st2" d="M115.81,60.86l1.15-.85-1.37-1.86,1.09-.8,1.37,1.86,1.5-1.11.63.86-1.5,1.11,2.33,3.16c.49.66.87.83,1.5.37.17-.12.39-.3.53-.47l.59.8c-.19.29-.48.52-.81.77-1.2.89-1.95.62-2.79-.52l-2.44-3.3-1.15.85-.63-.86Z"/>
    <path class="st2" d="M125.23,60.18c.7.55,1.58.54,2.64-.2,1.13-.79,1.26-1.46.89-1.99-.34-.49-.87-.62-2.49.25-2.25,1.19-3.14.74-3.65,0-.53-.76-.6-2.15,1.28-3.47,2.04-1.42,3.34-.77,3.89-.11l-1.11.77c-.34-.29-.98-.7-2.27.2-1.09.76-.99,1.39-.76,1.73.31.44.77.51,2.24-.25,2.42-1.24,3.3-.85,3.91.02.74,1.06.48,2.41-1.42,3.73-1.71,1.19-3.22,1.17-4.27.09l1.11-.77Z"/>
    <path class="st2" d="M133.5,59.44c-.29-1.8-.79-3.07-1.38-4.18l1.15-.76c.58,1.09,1.17,2.92,1.21,4.3l-.98.65Z"/>
    <path class="st2" d="M146.92,47.63c1.39,2.31,1.44,4.13-1.1,5.65-2.42,1.45-3.75.36-4.3-.3l1.18-.71c.56.52,1.34.81,2.62.04,1.8-1.08,1.4-2.42.49-3.94l-.2-.34c.06.94-.33,1.81-1.6,2.57-1.74,1.04-3.76.4-4.81-1.34-1.18-1.97-.56-4.18,1.1-5.18,1.41-.84,2.36-.55,2.84-.18-.17-.3-.45-.79-.53-.96l1.12-.67c.35.6.7,1.2,1.06,1.79l2.14,3.57ZM140.37,48.51c.76,1.26,2.14,1.68,3.35.96,1.29-.77,1.58-2.03.71-3.49-.86-1.43-2.07-1.79-3.33-1.04-1.43.86-1.41,2.41-.72,3.57Z"/>
    <path class="st2" d="M145.13,37.49l1.18-.66.79,1.41-1.18.66-.79-1.41ZM146.83,40.53l1.18-.66,3.5,6.26-1.18.66-3.5-6.26Z"/>
    <path class="st2" d="M151.44,37.96c1.35,1.16,4.38,3.52,4.97,4.08h.02c-.11-.64-.26-1.94-.63-6.39l1.22-.65.59,7.82-1.3.69-6.17-4.86,1.3-.69Z"/>
    <path class="st2" d="M161.79,37.01c.67,1.21,1.94,1.71,3.25,1.08,1.01-.49,1.37-1.17,1.41-1.96l1.21-.59c.12,1.13-.29,2.62-2.21,3.56-2.31,1.12-4.18-.06-5-1.76-.94-1.95-.36-4.05,1.68-5.04,2.45-1.18,4.18.19,4.94,1.77.05.11.09.19.15.32l-5.42,2.62ZM165.54,34.14c-.43-.74-1.37-1.66-2.97-.89-1.32.64-1.57,1.77-1.17,2.88l4.14-2Z"/>
    <path class="st2" d="M168.95,31.28c-.24-.55-.52-1.17-.74-1.65l1.2-.53c.12.21.38.75.58,1.19,0-.76.35-1.83,1.76-2.44,1.54-.68,2.96-.17,3.75,1.63l1.77,3.99-1.24.55-1.67-3.77c-.48-1.08-1.27-1.75-2.49-1.21-1.37.61-1.58,1.94-.91,3.46l1.39,3.15-1.24.55-2.17-4.91Z"/>
    <path class="st2" d="M181.72,23.91l1.33-.51-.83-2.15,1.26-.48.83,2.15,1.75-.67.38.99-1.75.67,1.41,3.67c.3.77.62,1.03,1.35.75.2-.08.46-.19.64-.31l.36.93c-.26.22-.61.37-.99.52-1.39.53-2.05.08-2.55-1.24l-1.47-3.83-1.33.51-.38-.99Z"/>
    <path class="st2" d="M196.55,22.34c.65,1.87.03,3.99-2.4,4.83-2.28.8-4.15-.45-4.8-2.32-.67-1.94.11-4.04,2.38-4.83,2.34-.81,4.19.53,4.81,2.32ZM190.65,24.4c.45,1.28,1.69,2.23,3.18,1.72,1.55-.54,1.88-1.95,1.41-3.3-.47-1.36-1.7-2.26-3.2-1.74-1.53.53-1.86,1.96-1.39,3.32Z"/>
    <path class="st2" d="M203.69,12.7l1.31,4.59c.1-.58.47-1.68,2.14-2.16,1.58-.45,2.89.22,3.45,2.18l1.19,4.16-1.3.37-1.13-3.97c-.33-1.16-1-1.91-2.28-1.54-1.46.41-1.82,1.78-1.41,3.22l.97,3.39-1.3.37-2.92-10.24,1.29-.37Z"/>
    <path class="st2" d="M221.01,15.41c.48,1.93-.34,3.98-2.83,4.6-2.35.58-4.09-.83-4.57-2.75-.49-1.99.48-4.02,2.82-4.6,2.4-.6,4.13.91,4.58,2.75ZM214.94,16.93c.33,1.32,1.48,2.38,3.01,2,1.59-.39,2.06-1.77,1.71-3.16-.35-1.39-1.49-2.41-3.03-2.02-1.58.39-2.04,1.79-1.69,3.18Z"/>
    <path class="st2" d="M224.77,16.03c.43.77,1.24,1.11,2.5.84,1.35-.28,1.72-.85,1.59-1.48-.12-.59-.56-.91-2.38-.75-2.52.21-3.17-.55-3.35-1.42-.19-.9.29-2.21,2.53-2.68,2.42-.51,3.37.59,3.62,1.42l-1.32.28c-.19-.4-.63-1.02-2.16-.7-1.3.27-1.45.89-1.37,1.29.11.52.5.76,2.15.64,2.71-.2,3.37.5,3.59,1.55.27,1.26-.49,2.4-2.76,2.87-2.04.43-3.41-.18-3.96-1.58l1.33-.28Z"/>
    <path class="st2" d="M234.53,15.2l.72,4.14-1.33.23-1.46-8.39c-.1-.58-.2-1.18-.32-1.76l1.3-.22c.06.2.16.67.26,1.21.29-.81.99-1.63,2.47-1.88,1.9-.33,3.56.99,3.92,3.03.4,2.3-.92,4.12-2.84,4.46-1.46.25-2.22-.27-2.71-.81ZM238.72,11.84c-.22-1.25-1.17-2.41-2.76-2.14-1.64.29-2.16,1.57-1.9,3.05.26,1.48,1.22,2.43,2.78,2.16,1.56-.27,2.12-1.66,1.88-3.08Z"/>
    <path class="st2" d="M241.94,4.28l1.33-.19.24,1.6-1.33.2-.24-1.6ZM242.44,7.72l1.33-.2,1.04,7.08-1.33.2-1.04-7.08Z"/>
    <path class="st2" d="M246.26,7.16l1.41-.18-.29-2.29,1.34-.17.29,2.29,1.85-.24.13,1.05-1.85.24.49,3.89c.1.81.36,1.15,1.13,1.05.21-.02.49-.07.69-.15l.12.98c-.31.16-.68.22-1.09.27-1.47.19-2-.41-2.18-1.81l-.52-4.06-1.41.18-.13-1.05Z"/>
    <path class="st2" d="M260.39,11.04c.07.7.2,1.59.24,1.76l-1.28.12c-.08-.26-.16-.8-.19-1.04-.3.78-1.06,1.36-2.58,1.5-2.02.19-2.88-.96-2.98-2.03-.18-1.83,1.44-2.49,3.47-2.69.86-.08,1.5-.14,1.74-.17l-.04-.38c-.07-.78-.48-1.48-2-1.33-1.37.13-1.63.76-1.71,1.43l-1.34.13c0-.95.5-2.34,2.95-2.58,2.6-.25,3.29.96,3.41,2.14l.3,3.12ZM258.91,9.45c-.22.02-.7.07-1.71.16-1.64.16-2.37.59-2.28,1.55.07.71.65,1.26,1.83,1.14,1.89-.18,2.3-1.34,2.18-2.54l-.03-.31Z"/>
    <path class="st2" d="M263.88,12.56l-.73-10.64,1.35-.09.73,10.64-1.35.09Z"/>
    <path class="st2" d="M267.96,1.61l1.35-.07.09,1.62-1.35.07-.09-1.62ZM268.15,5.09l1.35-.07.38,7.16-1.35.07-.38-7.17Z"/>
    <path class="st2" d="M271.99,4.91l1.42-.05-.08-2.31,1.35-.05.08,2.31,1.87-.06.04,1.06-1.87.06.13,3.92c.03.82.25,1.18,1.03,1.16.21,0,.5-.03.7-.09l.03.99c-.32.12-.69.15-1.1.17-1.49.05-1.96-.6-2.01-2.01l-.14-4.09-1.42.05-.04-1.06Z"/>
    <path class="st2" d="M279.86,4.73c1.57,3.49,2.43,5.49,2.66,6.09h.02c.24-.71.94-2.78,2.26-6.17l1.4-.02-2.7,6.84c-1.22,3.1-1.68,3.73-3.48,3.76-.26,0-.69-.02-.94-.06l-.02-1.18c.28.03.61.05.79.04.97-.01,1.33-.43,1.96-1.84l-3.43-7.44,1.48-.02Z"/>
    <path class="st2" d="M288.45,11.88l.04-2.32,1.49.03-.04,2.32-1.49-.03Z"/>
    <path class="st2" d="M292.83,5.47l-.06-2.71.05-1.42,1.37.04-.05,1.41-.22,2.71-1.08-.04Z"/>
  </g>
</svg>