<?xml version="1.0" encoding="UTF-8"?>
<svg id="Layer_1_copy_4" xmlns="http://www.w3.org/2000/svg" version="1.1" viewBox="0 0 866.72 273.54">
  <!-- Generator: Adobe Illustrator 30.3.0, SVG Export Plug-In . SVG Version: 2.1.3 Build 182)  -->
  <defs>
    <style>
      .st0 {
        fill: #414042;
      }

      .st1 {
        fill: #00bfdf;
      }

      .st2 {
        fill: #102b52;
      }

      .st3 {
        fill: #b1b5bd;
      }

      .st4 {
        fill: #f37021;
      }
    </style>
  </defs>
  <g>
    <path class="st1" d="M154.46,82.91v15.6h-44.21v22.49h40.44v14.82h-40.44v38.1h-17.55v-91.01h61.76Z"/>
    <path class="st1" d="M249.5,82.91v15.6h-44.21v22.23h40.44v15.34h-40.44v22.49h44.21v15.34h-61.76v-91.01h61.76Z"/>
    <path class="st1" d="M322.06,83.04c20.15,0,30.42,9.75,30.42,28.74,0,13.13-5.85,22.23-17.68,26.13l18.2,36.02h-19.24l-16.64-33.94h-14.69v33.94h-17.55v-91.01l37.19.13ZM319.98,124.51c9.62,0,14.82-3.77,14.82-12.35,0-9.62-5.07-13.65-14.82-13.65h-17.42v26h17.42Z"/>
    <path class="st2" d="M396.04,82.91l25.35,62.93c8.32-20.67,17.16-42.52,25.35-62.93h18.72l-36.28,91.01h-15.6l-36.28-91.01h18.72Z"/>
    <path class="st1" d="M562.86,82.91v15.6h-44.21v22.23h40.44v15.34h-40.44v22.49h44.21v15.34h-61.76v-91.01h61.76Z"/>
    <path class="st1" d="M614.09,82.91l40.05,60.2v-60.2h17.55v91.01h-15.86l-40.05-59.81v59.81h-17.42v-91.01h15.73Z"/>
    <path class="st1" d="M705.89,99.81v-16.9h70.99v16.9h-26.78v74.11h-17.55v-74.11h-26.65Z"/>
  </g>
  <g>
    <path class="st3" d="M93.19,75.17v1.22h-.4v-2.84h1.36c.58,0,.97.27.97.77,0,.34-.17.59-.52.68.19.05.44.19.44.69v.12c0,.22,0,.46.03.58h-.41c-.04-.12-.04-.34-.04-.58v-.09c0-.42-.16-.55-.66-.55h-.78ZM93.19,74.84h.86c.44,0,.66-.16.66-.49,0-.31-.22-.47-.65-.47h-.87v.96Z"/>
    <path class="st3" d="M98.9,75.38c0,.56-.36,1.07-1.09,1.07-.68,0-1.07-.51-1.07-1.07s.4-1.07,1.09-1.07,1.07.53,1.07,1.07ZM97.13,75.38c0,.38.25.75.69.75s.68-.35.68-.75-.24-.76-.69-.76-.68.35-.68.76Z"/>
    <path class="st3" d="M100.58,74.89c0-.17,0-.35,0-.52h.37c0,.08.01.2.01.3.1-.17.3-.36.65-.36.33,0,.53.16.62.39.11-.18.3-.39.7-.39s.72.23.72.83v1.25h-.38v-1.24c0-.24-.08-.53-.44-.53-.32,0-.53.22-.53.66v1.11h-.38v-1.25c0-.24-.08-.51-.44-.51-.38,0-.53.3-.53.68v1.08h-.38v-1.5Z"/>
    <path class="st3" d="M105.4,76.39v-.66h.42v.66h-.42Z"/>
    <path class="st3" d="M110.39,76.39v-2.23c-.16.11-.49.23-.62.25v-.3c.3-.09.58-.27.72-.42h.29v2.7h-.38Z"/>
    <path class="st3" d="M112.54,76.39v-.02c0-.46.29-.86.93-1.25.5-.3.64-.41.64-.7,0-.23-.15-.47-.56-.47-.34,0-.55.19-.61.56h-.37c.04-.51.4-.88.99-.88.62,0,.94.37.94.79,0,.46-.25.62-.76.92-.4.24-.68.48-.75.73h1.62l-.06.32h-2.02Z"/>
    <path class="st3" d="M116.26,74.98v-.63h.4v.63h-.4ZM116.26,76.39v-.63h.4v.63h-.4Z"/>
    <path class="st3" d="M118.97,76.39v-2.23c-.16.11-.49.23-.62.25v-.3c.3-.09.58-.27.72-.42h.29v2.7h-.38Z"/>
    <path class="st3" d="M121.71,76.39v-2.23c-.16.11-.49.23-.62.25v-.3c.3-.09.58-.27.72-.42h.29v2.7h-.38Z"/>
    <path class="st3" d="M125.18,75.2v.33h-1.28v-.33h1.28Z"/>
    <path class="st3" d="M127.37,76.39v-2.23c-.16.11-.49.23-.62.25v-.3c.3-.09.58-.27.72-.42h.29v2.7h-.38Z"/>
    <path class="st3" d="M129.6,74.36c.05-.31.3-.73.97-.73s.93.37.93.72-.25.51-.42.55h0c.2.06.53.24.53.69,0,.5-.38.85-1.04.85s-.99-.38-1.05-.78h.39c.07.28.3.47.68.47.35,0,.63-.16.63-.54,0-.31-.21-.5-.65-.5h-.21v-.33h.17c.44,0,.57-.15.57-.4,0-.22-.16-.43-.54-.43s-.53.19-.59.42h-.38Z"/>
    <path class="st3" d="M135.81,76.39v-2.84h.48c.64.89,1.55,2.06,1.71,2.35h0c-.03-.37-.02-.82-.02-1.28v-1.07h.38v2.84h-.45c-.42-.57-1.54-2.1-1.74-2.43h0c.02.37.02.77.02,1.27v1.16h-.38Z"/>
    <path class="st3" d="M140.36,73.55h.4v1.4c.44-.37,1.13-.94,1.67-1.4h.52l-1.44,1.22,1.53,1.62h-.52l-1.31-1.41-.44.35v1.05h-.4v-2.84Z"/>
    <path class="st3" d="M145.49,75.42c0,.7-.26,1.03-.89,1.03-.16,0-.28-.01-.38-.03v-.34c.1.02.23.03.36.03.4,0,.51-.3.51-.67v-1.89h.4v1.86Z"/>
    <path class="st3" d="M148.35,76.39l-1.24-2.84h.44l.65,1.52c.24.56.33.82.39.98h0c.04-.14.17-.44.36-.91l.68-1.58h.43l-1.26,2.84h-.45Z"/>
    <path class="st3" d="M155.18,75.2v.33h-1.28v-.33h1.28Z"/>
    <path class="st3" d="M159.2,74.55l-.04-.76v-.4h.39v.4l-.04.77h-.3Z"/>
    <path class="st3" d="M161.23,74.88c0-.17,0-.36,0-.51h.37c0,.07.01.24.01.37.09-.19.3-.43.73-.43.48,0,.78.29.78.85v1.23h-.38v-1.16c0-.33-.13-.6-.5-.6-.42,0-.63.32-.63.79v.97h-.38v-1.51Z"/>
    <path class="st3" d="M166.97,75.38c0,.56-.36,1.07-1.09,1.07-.68,0-1.07-.51-1.07-1.07s.4-1.07,1.09-1.07,1.07.53,1.07,1.07ZM165.2,75.38c0,.38.25.75.69.75s.68-.35.68-.75-.24-.76-.69-.76-.68.35-.68.76Z"/>
    <path class="st3" d="M168.4,74.37h.4v-.65h.38v.65h.53v.3h-.53v1.11c0,.23.06.33.28.33.06,0,.14,0,.2-.02v.28c-.09.03-.2.04-.31.04-.42,0-.55-.19-.55-.58v-1.16h-.4v-.3Z"/>
    <path class="st3" d="M173.7,76.39v-3.01h.38v3.01h-.38Z"/>
    <path class="st3" d="M177.69,75.89c0,.2.01.45.02.5h-.36c-.02-.07-.02-.23-.02-.3-.11.21-.34.35-.76.35-.57,0-.78-.35-.78-.65,0-.52.47-.66,1.05-.66h.49v-.11c0-.22-.1-.43-.53-.43-.39,0-.48.17-.52.36h-.38c.02-.27.2-.64.9-.64.74,0,.9.36.9.69v.88ZM177.31,75.41c-.06,0-.2,0-.48,0-.46,0-.68.1-.68.37,0,.2.15.37.48.37.54,0,.68-.31.68-.65v-.09Z"/>
    <path class="st3" d="M181.48,76.13c0,.76-.25,1.21-1.09,1.21s-.96-.46-1-.69h.39c.06.21.21.39.63.39.59,0,.69-.38.69-.88v-.11c-.12.24-.34.39-.76.39-.57,0-.97-.45-.97-1.02,0-.65.47-1.09,1.02-1.09.46,0,.65.21.71.37,0-.1,0-.25.01-.31h.37c0,.2,0,.39,0,.59v1.17ZM179.76,75.39c0,.42.27.72.67.72.42,0,.68-.26.68-.74s-.24-.73-.66-.73c-.47,0-.69.38-.69.76Z"/>
    <path class="st3" d="M185.27,76.13c0,.76-.25,1.21-1.09,1.21s-.96-.46-1-.69h.39c.06.21.21.39.63.39.59,0,.69-.38.69-.88v-.11c-.12.24-.34.39-.76.39-.57,0-.97-.45-.97-1.02,0-.65.47-1.09,1.02-1.09.46,0,.65.21.71.37,0-.1,0-.25.01-.31h.37c0,.2,0,.39,0,.59v1.17ZM183.55,75.39c0,.42.27.72.67.72.42,0,.68-.26.68-.74s-.24-.73-.66-.73c-.47,0-.69.38-.69.76Z"/>
    <path class="st3" d="M187.1,73.39h.38v.46h-.38v-.46ZM187.1,74.37h.38v2.02h-.38v-2.02Z"/>
    <path class="st3" d="M189.32,74.88c0-.17,0-.36,0-.51h.37c0,.07.01.24.01.37.09-.19.3-.43.73-.43.48,0,.78.29.78.85v1.23h-.38v-1.16c0-.33-.13-.6-.5-.6-.42,0-.63.32-.63.79v.97h-.38v-1.51Z"/>
    <path class="st3" d="M195,76.13c0,.76-.25,1.21-1.09,1.21s-.96-.46-1-.69h.39c.06.21.21.39.63.39.59,0,.69-.38.69-.88v-.11c-.12.24-.34.39-.76.39-.57,0-.97-.45-.97-1.02,0-.65.47-1.09,1.02-1.09.46,0,.65.21.71.37,0-.1,0-.25.01-.31h.37c0,.2,0,.39,0,.59v1.17ZM193.29,75.39c0,.42.27.72.67.72.42,0,.68-.26.68-.74s-.24-.73-.66-.73c-.47,0-.69.38-.69.76Z"/>
    <path class="st3" d="M199.21,73.39h.38v.46h-.38v-.46ZM199.21,74.37h.38v2.02h-.38v-2.02Z"/>
    <path class="st3" d="M201.43,74.88c0-.17,0-.36,0-.51h.37c0,.07.01.24.01.37.09-.19.3-.43.73-.43.48,0,.78.29.78.85v1.23h-.38v-1.16c0-.33-.13-.6-.5-.6-.42,0-.63.32-.63.79v.97h-.38v-1.51Z"/>
    <path class="st3" d="M209.49,73.39v2.42c0,.19,0,.39,0,.59h-.37c-.01-.09-.01-.21-.02-.31-.1.17-.27.36-.74.36-.58,0-.98-.44-.98-1.05,0-.67.5-1.08,1.03-1.08.47,0,.64.21.7.31v-1.24h.38ZM207.77,75.39c0,.37.23.74.67.74.48,0,.68-.31.68-.76s-.16-.74-.67-.74c-.46,0-.68.38-.68.76Z"/>
    <path class="st3" d="M211.32,73.39h.38v.46h-.38v-.46ZM211.32,74.37h.38v2.02h-.38v-2.02Z"/>
    <path class="st3" d="M213.54,76.39v-3.01h.38v3.01h-.38Z"/>
    <path class="st3" d="M215.76,73.39h.38v.46h-.38v-.46ZM215.76,74.37h.38v2.02h-.38v-2.02Z"/>
    <path class="st3" d="M219.92,76.13c0,.76-.25,1.21-1.09,1.21s-.96-.46-1-.69h.39c.06.21.21.39.63.39.59,0,.69-.38.69-.88v-.11c-.12.24-.34.39-.76.39-.57,0-.97-.45-.97-1.02,0-.65.47-1.09,1.02-1.09.46,0,.65.21.71.37,0-.1,0-.25.01-.31h.37c0,.2,0,.39,0,.59v1.17ZM218.21,75.39c0,.42.27.72.67.72.42,0,.68-.26.68-.74s-.24-.73-.66-.73c-.47,0-.69.38-.69.76Z"/>
    <path class="st3" d="M221.99,75.47c.02.39.28.67.69.67.32,0,.49-.13.6-.33h.38c-.11.3-.4.63-1,.63-.72,0-1.05-.53-1.05-1.06,0-.61.41-1.07,1.04-1.07.77,0,1.04.56,1.04,1.06,0,.03,0,.06,0,.1h-1.7ZM223.3,75.2c-.02-.24-.15-.59-.65-.59-.42,0-.62.26-.65.59h1.3Z"/>
    <path class="st3" d="M225.37,74.88c0-.17,0-.36,0-.51h.37c0,.07.01.24.01.37.09-.19.3-.43.73-.43.48,0,.78.29.78.85v1.23h-.38v-1.16c0-.33-.13-.6-.5-.6-.42,0-.63.32-.63.79v.97h-.38v-1.51Z"/>
    <path class="st3" d="M231.01,75.76c-.1.37-.42.69-.99.69-.72,0-1.07-.48-1.07-1.06s.39-1.07,1.07-1.07.94.43.98.7h-.38c-.07-.19-.23-.39-.61-.39-.43,0-.68.32-.68.76s.24.76.68.76c.33,0,.51-.15.61-.38h.38Z"/>
    <path class="st3" d="M232.91,75.47c.02.39.28.67.69.67.32,0,.49-.13.6-.33h.38c-.11.3-.4.63-1,.63-.72,0-1.05-.53-1.05-1.06,0-.61.41-1.07,1.04-1.07.77,0,1.04.56,1.04,1.06,0,.03,0,.06,0,.1h-1.7ZM234.21,75.2c-.02-.24-.15-.59-.65-.59-.42,0-.62.26-.65.59h1.3Z"/>
    <path class="st3" d="M236,76.94c.21-.47.3-.85.33-1.2h.39c-.03.35-.18.87-.39,1.2h-.33Z"/>
    <path class="st3" d="M240.96,76.39v-1.72h-.38v-.3h.38v-.27c0-.46.2-.74.67-.74.1,0,.18,0,.24.02v.31c-.05-.01-.13-.02-.18-.02-.27,0-.35.12-.35.44v.25h.47v.3h-.47v1.72h-.38Z"/>
    <path class="st3" d="M243.57,75.47c.02.39.28.67.69.67.32,0,.49-.13.6-.33h.38c-.11.3-.4.63-1,.63-.72,0-1.05-.53-1.05-1.06,0-.61.41-1.07,1.04-1.07.77,0,1.04.56,1.04,1.06,0,.03,0,.06,0,.1h-1.7ZM244.88,75.2c-.02-.24-.15-.59-.65-.59-.42,0-.62.26-.65.59h1.3Z"/>
    <path class="st3" d="M246.95,74.92c0-.18,0-.37,0-.55h.37c0,.06.01.27.01.46.13-.31.42-.51.82-.51v.36c-.46,0-.82.27-.82.87v.84h-.38v-1.47Z"/>
    <path class="st3" d="M249.87,74.37c.18.47.62,1.46.7,1.67h0c.06-.17.19-.51.69-1.67h.39l-.89,2.02h-.42l-.89-2.02h.41Z"/>
    <path class="st3" d="M253.45,75.47c.02.39.28.67.69.67.32,0,.49-.13.6-.33h.38c-.11.3-.4.63-1,.63-.72,0-1.05-.53-1.05-1.06,0-.61.41-1.07,1.04-1.07.77,0,1.04.56,1.04,1.06,0,.03,0,.06,0,.1h-1.7ZM254.76,75.2c-.02-.24-.15-.59-.65-.59-.42,0-.62.26-.65.59h1.3Z"/>
    <path class="st3" d="M256.83,74.88c0-.17,0-.36,0-.51h.37c0,.07.01.24.01.37.09-.19.3-.43.73-.43.48,0,.78.29.78.85v1.23h-.38v-1.16c0-.33-.13-.6-.5-.6-.42,0-.63.32-.63.79v.97h-.38v-1.51Z"/>
    <path class="st3" d="M260.3,74.37h.4v-.65h.38v.65h.53v.3h-.53v1.11c0,.23.06.33.28.33.06,0,.14,0,.2-.02v.28c-.09.03-.2.04-.31.04-.42,0-.55-.19-.55-.58v-1.16h-.4v-.3Z"/>
    <path class="st3" d="M265.6,73.39h.38v.46h-.38v-.46ZM265.6,74.37h.38v2.02h-.38v-2.02Z"/>
    <path class="st3" d="M267.82,74.88c0-.17,0-.36,0-.51h.37c0,.07.01.24.01.37.09-.19.3-.43.73-.43.48,0,.78.29.78.85v1.23h-.38v-1.16c0-.33-.13-.6-.5-.6-.42,0-.63.32-.63.79v.97h-.38v-1.51Z"/>
    <path class="st3" d="M274.12,75.78c.07.24.28.38.64.38.39,0,.53-.14.53-.32,0-.17-.1-.28-.62-.34-.71-.09-.84-.34-.84-.59s.21-.6.86-.6c.7,0,.9.36.92.6h-.38c-.03-.12-.11-.32-.56-.32-.37,0-.45.16-.45.28,0,.15.1.24.56.3.76.1.9.34.9.64,0,.36-.28.63-.93.63-.59,0-.93-.25-1-.67h.38Z"/>
    <path class="st3" d="M277.74,76.09v1.19h-.38v-2.41c0-.17,0-.34,0-.5h.37c0,.06.01.2.01.35.12-.21.35-.4.78-.4.55,0,.94.45.94,1.03,0,.66-.46,1.1-1.01,1.1-.42,0-.61-.18-.71-.36ZM279.06,75.36c0-.36-.21-.73-.66-.73s-.68.33-.68.76.22.74.67.74.67-.36.67-.76Z"/>
    <path class="st3" d="M281.14,73.39h.38v.46h-.38v-.46ZM281.14,74.37h.38v2.02h-.38v-2.02Z"/>
    <path class="st3" d="M283.36,74.92c0-.18,0-.37,0-.55h.37c0,.06.01.27.01.46.13-.31.42-.51.82-.51v.36c-.46,0-.82.27-.82.87v.84h-.38v-1.47Z"/>
    <path class="st3" d="M286.14,73.39h.38v.46h-.38v-.46ZM286.14,74.37h.38v2.02h-.38v-2.02Z"/>
    <path class="st3" d="M288.1,74.37h.4v-.65h.38v.65h.53v.3h-.53v1.11c0,.23.06.33.28.33.06,0,.14,0,.2-.02v.28c-.09.03-.2.04-.31.04-.42,0-.55-.19-.55-.58v-1.16h-.4v-.3Z"/>
    <path class="st3" d="M290.75,76.94c.21-.47.3-.85.33-1.2h.39c-.03.35-.18.87-.39,1.2h-.33Z"/>
    <path class="st3" d="M295.78,75.78c.07.24.28.38.64.38.39,0,.53-.14.53-.32,0-.17-.1-.28-.62-.34-.71-.09-.84-.34-.84-.59s.21-.6.86-.6c.7,0,.9.36.92.6h-.38c-.03-.12-.11-.32-.56-.32-.37,0-.45.16-.45.28,0,.15.1.24.56.3.76.1.9.34.9.64,0,.36-.28.63-.93.63-.59,0-.93-.25-1-.67h.38Z"/>
    <path class="st3" d="M299.25,75.47c.02.39.28.67.69.67.32,0,.49-.13.6-.33h.38c-.11.3-.4.63-1,.63-.72,0-1.05-.53-1.05-1.06,0-.61.41-1.07,1.04-1.07.77,0,1.04.56,1.04,1.06,0,.03,0,.06,0,.1h-1.7ZM300.56,75.2c-.02-.24-.15-.59-.65-.59-.41,0-.62.26-.65.59h1.3Z"/>
    <path class="st3" d="M302.63,74.92c0-.18,0-.37,0-.55h.37c0,.06.01.27.01.46.13-.31.42-.51.82-.51v.36c-.46,0-.82.27-.82.87v.84h-.38v-1.47Z"/>
    <path class="st3" d="M305.55,74.37c.18.47.62,1.46.7,1.67h0c.06-.17.19-.51.69-1.67h.39l-.89,2.02h-.42l-.89-2.02h.41Z"/>
    <path class="st3" d="M308.9,73.39h.38v.46h-.38v-.46ZM308.9,74.37h.38v2.02h-.38v-2.02Z"/>
    <path class="st3" d="M311.11,74.88c0-.17,0-.36,0-.51h.37c0,.07.01.24.01.37.09-.19.3-.43.73-.43.48,0,.78.29.78.85v1.23h-.38v-1.16c0-.33-.13-.6-.5-.6-.42,0-.63.32-.63.79v.97h-.38v-1.51Z"/>
    <path class="st3" d="M316.8,76.13c0,.76-.25,1.21-1.09,1.21s-.96-.46-1-.69h.39c.06.21.21.39.63.39.59,0,.69-.38.69-.88v-.11c-.12.24-.34.39-.76.39-.57,0-.97-.45-.97-1.02,0-.65.47-1.09,1.02-1.09.46,0,.65.21.71.37,0-.1,0-.25.01-.31h.37c0,.2,0,.39,0,.59v1.17ZM315.08,75.39c0,.42.27.72.67.72.42,0,.68-.26.68-.74s-.24-.73-.66-.73c-.47,0-.69.38-.69.76Z"/>
    <path class="st3" d="M320.75,74.37h.4v-.65h.38v.65h.53v.3h-.53v1.11c0,.23.06.33.28.33.06,0,.14,0,.2-.02v.28c-.09.03-.2.04-.31.04-.42,0-.55-.19-.55-.58v-1.16h-.4v-.3Z"/>
    <path class="st3" d="M324.06,73.39v1.35c.07-.15.26-.42.75-.42.46,0,.77.28.77.86v1.22h-.38v-1.17c0-.34-.12-.59-.5-.59-.43,0-.63.34-.63.77v.99h-.38v-3.01h.38Z"/>
    <path class="st3" d="M327.64,75.47c.02.39.28.67.69.67.32,0,.49-.13.6-.33h.38c-.11.3-.4.63-1,.63-.72,0-1.05-.53-1.05-1.06,0-.61.41-1.07,1.04-1.07.77,0,1.04.56,1.04,1.06,0,.03,0,.06,0,.1h-1.7ZM328.95,75.2c-.02-.24-.15-.59-.65-.59-.41,0-.62.26-.65.59h1.3Z"/>
    <path class="st3" d="M333.47,73.55h.4v2.5h1.71l-.06.34h-2.05v-2.84Z"/>
    <path class="st3" d="M339.16,75.38c0,.56-.36,1.07-1.09,1.07-.68,0-1.07-.51-1.07-1.07s.4-1.07,1.09-1.07,1.07.53,1.07,1.07ZM337.39,75.38c0,.38.25.75.69.75s.68-.35.68-.75-.24-.76-.69-.76-.68.35-.68.76Z"/>
    <path class="st3" d="M340.84,74.92c0-.18,0-.37,0-.55h.37c0,.06.01.27.01.46.13-.31.42-.51.82-.51v.36c-.46,0-.82.27-.82.87v.84h-.38v-1.47Z"/>
    <path class="st3" d="M345.58,73.39v2.42c0,.19,0,.39,0,.59h-.37c-.01-.09-.01-.21-.02-.31-.1.17-.27.36-.74.36-.58,0-.98-.44-.98-1.05,0-.67.5-1.08,1.03-1.08.47,0,.64.21.7.31v-1.24h.38ZM343.87,75.39c0,.37.23.74.67.74.48,0,.68-.31.68-.76s-.16-.74-.67-.74c-.46,0-.68.38-.68.76Z"/>
    <path class="st3" d="M347.18,76.96c.2-.44.3-.84.32-1.19h.4c-.03.34-.17.86-.38,1.19h-.34ZM347.49,74.98v-.63h.42v.63h-.42Z"/>
    <path class="st3" d="M352.15,74.92c0-.18,0-.37,0-.55h.37c0,.06.01.27.01.46.13-.31.42-.51.82-.51v.36c-.46,0-.82.27-.82.87v.84h-.38v-1.47Z"/>
    <path class="st3" d="M355.16,75.47c.02.39.28.67.69.67.32,0,.49-.13.6-.33h.38c-.11.3-.4.63-1,.63-.72,0-1.05-.53-1.05-1.06,0-.61.41-1.07,1.04-1.07.77,0,1.04.56,1.04,1.06,0,.03,0,.06,0,.1h-1.7ZM356.47,75.2c-.02-.24-.15-.59-.65-.59-.41,0-.62.26-.65.59h1.3Z"/>
    <path class="st3" d="M358.94,74.37v2.09c0,.49-.1.87-.73.87-.02,0-.05,0-.05,0v-.31h.04c.28,0,.37-.16.37-.48v-2.18h.38ZM358.56,73.85v-.46h.38v.46h-.38Z"/>
    <path class="st3" d="M362.78,75.38c0,.56-.36,1.07-1.09,1.07-.68,0-1.07-.51-1.07-1.07s.4-1.07,1.09-1.07,1.07.53,1.07,1.07ZM361.02,75.38c0,.38.25.75.69.75s.68-.35.68-.75-.24-.76-.69-.76-.68.35-.68.76Z"/>
    <path class="st3" d="M364.47,73.39h.38v.46h-.38v-.46ZM364.47,74.37h.38v2.02h-.38v-2.02Z"/>
    <path class="st3" d="M368.59,75.76c-.1.37-.42.69-.99.69-.72,0-1.07-.48-1.07-1.06s.39-1.07,1.07-1.07.94.43.98.7h-.38c-.07-.19-.23-.39-.61-.39-.43,0-.68.32-.68.76s.24.76.68.76c.33,0,.51-.15.61-.38h.38Z"/>
    <path class="st3" d="M370.26,73.39h.38v.46h-.38v-.46ZM370.26,74.37h.38v2.02h-.38v-2.02Z"/>
    <path class="st3" d="M372.48,74.88c0-.17,0-.36,0-.51h.37c0,.07.01.24.01.37.09-.19.3-.43.73-.43.48,0,.78.29.78.85v1.23h-.38v-1.16c0-.33-.13-.6-.5-.6-.42,0-.63.32-.63.79v.97h-.38v-1.51Z"/>
    <path class="st3" d="M378.16,76.13c0,.76-.25,1.21-1.09,1.21s-.96-.46-1-.69h.39c.06.21.21.39.63.39.59,0,.69-.38.69-.88v-.11c-.12.24-.34.39-.76.39-.57,0-.97-.45-.97-1.02,0-.65.47-1.09,1.02-1.09.46,0,.65.21.71.37,0-.1,0-.25.01-.31h.37c0,.2,0,.39,0,.59v1.17ZM376.45,75.39c0,.42.27.72.67.72.42,0,.68-.26.68-.74s-.24-.73-.66-.73c-.47,0-.69.38-.69.76Z"/>
    <path class="st3" d="M382.37,73.39h.38v.46h-.38v-.46ZM382.37,74.37h.38v2.02h-.38v-2.02Z"/>
    <path class="st3" d="M384.58,74.88c0-.17,0-.36,0-.51h.37c0,.07.01.24.01.37.09-.19.3-.43.73-.43.48,0,.78.29.78.85v1.23h-.38v-1.16c0-.33-.13-.6-.5-.6-.42,0-.63.32-.63.79v.97h-.38v-1.51Z"/>
    <path class="st3" d="M391.07,73.39v1.35c.07-.15.26-.42.75-.42.46,0,.77.28.77.86v1.22h-.38v-1.17c0-.34-.12-.59-.5-.59-.43,0-.63.34-.63.77v.99h-.38v-3.01h.38Z"/>
    <path class="st3" d="M396.43,75.38c0,.56-.36,1.07-1.09,1.07-.68,0-1.07-.51-1.07-1.07s.4-1.07,1.09-1.07,1.07.53,1.07,1.07ZM394.66,75.38c0,.38.25.75.69.75s.68-.35.68-.75-.24-.76-.69-.76-.68.35-.68.76Z"/>
    <path class="st3" d="M398.49,76.09v1.19h-.38v-2.41c0-.17,0-.34,0-.5h.37c0,.06.01.2.01.35.12-.21.35-.4.78-.4.55,0,.94.45.94,1.03,0,.66-.46,1.1-1.01,1.1-.42,0-.61-.18-.71-.36ZM399.82,75.36c0-.36-.21-.73-.66-.73s-.68.33-.68.76.22.74.67.74.67-.36.67-.76Z"/>
    <path class="st3" d="M402.13,75.47c.02.39.28.67.69.67.32,0,.49-.13.6-.33h.38c-.11.3-.4.63-1,.63-.72,0-1.05-.53-1.05-1.06,0-.61.41-1.07,1.04-1.07.77,0,1.04.56,1.04,1.06,0,.03,0,.06,0,.1h-1.7ZM403.44,75.2c-.02-.24-.15-.59-.65-.59-.41,0-.62.26-.65.59h1.3Z"/>
    <path class="st3" d="M405.22,76.94c.21-.47.3-.85.33-1.2h.39c-.03.35-.18.87-.39,1.2h-.33Z"/>
    <path class="st3" d="M410.45,76.09v1.19h-.38v-2.41c0-.17,0-.34,0-.5h.37c0,.06.01.2.01.35.12-.21.35-.4.78-.4.55,0,.94.45.94,1.03,0,.66-.46,1.1-1.01,1.1-.42,0-.61-.18-.71-.36ZM411.78,75.36c0-.36-.21-.73-.66-.73s-.68.33-.68.76.22.74.67.74.67-.36.67-.76Z"/>
    <path class="st3" d="M415.63,75.89c0,.2.01.45.02.5h-.36c-.02-.07-.02-.23-.02-.3-.11.21-.34.35-.76.35-.57,0-.78-.35-.78-.65,0-.52.47-.66,1.05-.66h.49v-.11c0-.22-.1-.43-.53-.43-.39,0-.48.17-.52.36h-.38c.02-.27.2-.64.9-.64.74,0,.9.36.9.69v.88ZM415.26,75.41c-.06,0-.2,0-.48,0-.46,0-.68.1-.68.37,0,.2.15.37.48.37.54,0,.68-.31.68-.65v-.09Z"/>
    <path class="st3" d="M417.21,74.37h.4v-.65h.38v.65h.53v.3h-.53v1.11c0,.23.06.33.28.33.06,0,.14,0,.2-.02v.28c-.09.03-.2.04-.31.04-.42,0-.55-.19-.55-.58v-1.16h-.4v-.3Z"/>
    <path class="st3" d="M420.14,73.39h.38v.46h-.38v-.46ZM420.14,74.37h.38v2.02h-.38v-2.02Z"/>
    <path class="st3" d="M422.59,75.47c.02.39.28.67.69.67.32,0,.49-.13.6-.33h.38c-.11.3-.4.63-1,.63-.72,0-1.05-.53-1.05-1.06,0-.61.41-1.07,1.04-1.07.77,0,1.04.56,1.04,1.06,0,.03,0,.06,0,.1h-1.7ZM423.89,75.2c-.02-.24-.15-.59-.65-.59-.42,0-.62.26-.65.59h1.3Z"/>
    <path class="st3" d="M425.96,74.88c0-.17,0-.36,0-.51h.37c0,.07.01.24.01.37.09-.19.3-.43.73-.43.48,0,.78.29.78.85v1.23h-.38v-1.16c0-.33-.13-.6-.5-.6-.42,0-.63.32-.63.79v.97h-.38v-1.51Z"/>
    <path class="st3" d="M429.44,74.37h.4v-.65h.38v.65h.53v.3h-.53v1.11c0,.23.06.33.28.33.06,0,.14,0,.2-.02v.28c-.09.03-.2.04-.31.04-.42,0-.55-.19-.55-.58v-1.16h-.4v-.3Z"/>
    <path class="st3" d="M434.74,73.39h.38v.46h-.38v-.46ZM434.74,74.37h.38v2.02h-.38v-2.02Z"/>
    <path class="st3" d="M436.96,74.88c0-.17,0-.36,0-.51h.37c0,.07.01.24.01.37.09-.19.3-.43.73-.43.48,0,.78.29.78.85v1.23h-.38v-1.16c0-.33-.13-.6-.5-.6-.42,0-.63.32-.63.79v.97h-.38v-1.51Z"/>
    <path class="st3" d="M442.8,74.37h.4v-.65h.38v.65h.53v.3h-.53v1.11c0,.23.06.33.28.33.06,0,.14,0,.2-.02v.28c-.09.03-.2.04-.31.04-.42,0-.55-.19-.55-.58v-1.16h-.4v-.3Z"/>
    <path class="st3" d="M445.73,74.92c0-.18,0-.37,0-.55h.37c0,.06.01.27.01.46.13-.31.42-.51.82-.51v.36c-.46,0-.82.27-.82.87v.84h-.38v-1.47Z"/>
    <path class="st3" d="M448.52,73.39h.38v.46h-.38v-.46ZM448.52,74.37h.38v2.02h-.38v-2.02Z"/>
    <path class="st3" d="M450.73,73.39h.38v1.29c.1-.16.32-.37.75-.37.57,0,.97.44.97,1.03,0,.68-.42,1.1-1,1.1-.43,0-.63-.19-.74-.37,0,.1,0,.24-.01.31h-.37c0-.26,0-.46,0-.7v-2.31ZM452.44,75.36c0-.34-.2-.73-.66-.73s-.68.32-.68.75c0,.46.26.75.68.75.47,0,.66-.37.66-.77Z"/>
    <path class="st3" d="M456.39,75.8c0,.2,0,.39,0,.59h-.37c0-.06-.01-.2-.01-.34-.1.23-.28.4-.73.4s-.76-.23-.76-.82v-1.25h.38v1.19c0,.31.12.57.48.57.44,0,.62-.25.62-.84v-.92h.38v1.43Z"/>
    <path class="st3" d="M458.22,76.39v-3.01h.38v3.01h-.38Z"/>
    <path class="st3" d="M462.21,75.89c0,.2.01.45.02.5h-.36c-.02-.07-.02-.23-.02-.3-.11.21-.33.35-.76.35-.57,0-.78-.35-.78-.65,0-.52.47-.66,1.05-.66h.49v-.11c0-.22-.09-.43-.53-.43-.39,0-.48.17-.52.36h-.38c.02-.27.2-.64.9-.64.74,0,.9.36.9.69v.88ZM461.84,75.41c-.06,0-.2,0-.48,0-.46,0-.68.1-.68.37,0,.2.15.37.48.37.54,0,.68-.31.68-.65v-.09Z"/>
    <path class="st3" d="M463.79,74.37h.4v-.65h.38v.65h.53v.3h-.53v1.11c0,.23.06.33.28.33.06,0,.14,0,.2-.02v.28c-.09.03-.2.04-.31.04-.42,0-.55-.19-.55-.58v-1.16h-.4v-.3Z"/>
    <path class="st3" d="M466.73,73.39h.38v.46h-.38v-.46ZM466.73,74.37h.38v2.02h-.38v-2.02Z"/>
    <path class="st3" d="M470.95,75.38c0,.56-.36,1.07-1.09,1.07-.68,0-1.07-.51-1.07-1.07s.41-1.07,1.09-1.07,1.07.53,1.07,1.07ZM469.18,75.38c0,.38.25.75.69.75s.69-.35.69-.75-.25-.76-.69-.76-.68.35-.68.76Z"/>
    <path class="st3" d="M472.63,74.88c0-.17,0-.36,0-.51h.37c0,.07.01.24.01.37.09-.19.3-.43.73-.43.47,0,.78.29.78.85v1.23h-.38v-1.16c0-.33-.13-.6-.5-.6-.42,0-.63.32-.63.79v.97h-.38v-1.51Z"/>
    <path class="st3" d="M476.08,76.94c.21-.47.3-.85.33-1.2h.39c-.03.35-.18.87-.39,1.2h-.33Z"/>
    <path class="st3" d="M482.83,75.76c-.1.37-.42.69-.99.69-.72,0-1.07-.48-1.07-1.06s.39-1.07,1.07-1.07.94.43.98.7h-.38c-.07-.19-.23-.39-.61-.39-.43,0-.68.32-.68.76s.24.76.68.76c.33,0,.51-.15.61-.38h.38Z"/>
    <path class="st3" d="M486.51,75.38c0,.56-.36,1.07-1.09,1.07-.68,0-1.07-.51-1.07-1.07s.41-1.07,1.09-1.07,1.07.53,1.07,1.07ZM484.74,75.38c0,.38.25.75.69.75s.69-.35.69-.75-.25-.76-.69-.76-.68.35-.68.76Z"/>
    <path class="st3" d="M488.19,74.88c0-.17,0-.36,0-.51h.37c0,.07.01.24.01.37.09-.19.3-.43.73-.43.47,0,.78.29.78.85v1.23h-.38v-1.16c0-.33-.13-.6-.5-.6-.42,0-.63.32-.63.79v.97h-.38v-1.51Z"/>
    <path class="st3" d="M491.66,74.37h.4v-.65h.38v.65h.53v.3h-.53v1.11c0,.23.06.33.28.33.06,0,.14,0,.2-.02v.28c-.09.03-.2.04-.31.04-.42,0-.55-.19-.55-.58v-1.16h-.4v-.3Z"/>
    <path class="st3" d="M494.6,73.39h.38v.46h-.38v-.46ZM494.6,74.37h.38v2.02h-.38v-2.02Z"/>
    <path class="st3" d="M496.81,74.88c0-.17,0-.36,0-.51h.37c0,.07.01.24.01.37.09-.19.3-.43.73-.43.47,0,.78.29.78.85v1.23h-.38v-1.16c0-.33-.13-.6-.5-.6-.42,0-.63.32-.63.79v.97h-.38v-1.51Z"/>
    <path class="st3" d="M502.41,75.8c0,.2,0,.39,0,.59h-.37c0-.06-.01-.2-.01-.34-.1.23-.28.4-.73.4s-.76-.23-.76-.82v-1.25h.38v1.19c0,.31.12.57.48.57.44,0,.62-.25.62-.84v-.92h.38v1.43Z"/>
    <path class="st3" d="M504.24,73.39h.38v.46h-.38v-.46ZM504.24,74.37h.38v2.02h-.38v-2.02Z"/>
    <path class="st3" d="M506.46,74.88c0-.17,0-.36,0-.51h.37c0,.07.01.24.01.37.09-.19.3-.43.73-.43.47,0,.78.29.78.85v1.23h-.38v-1.16c0-.33-.13-.6-.5-.6-.42,0-.63.32-.63.79v.97h-.38v-1.51Z"/>
    <path class="st3" d="M512.14,76.13c0,.76-.25,1.21-1.09,1.21s-.96-.46-1-.69h.39c.06.21.21.39.63.39.59,0,.69-.38.69-.88v-.11c-.12.24-.34.39-.76.39-.57,0-.97-.45-.97-1.02,0-.65.47-1.09,1.02-1.09.46,0,.65.21.71.37,0-.1,0-.25.01-.31h.37c0,.2,0,.39,0,.59v1.17ZM510.43,75.39c0,.42.27.72.67.72.42,0,.68-.26.68-.74s-.24-.73-.66-.73c-.47,0-.69.38-.69.76Z"/>
    <path class="st3" d="M516.55,75.78c.07.24.28.38.64.38.39,0,.53-.14.53-.32,0-.17-.1-.28-.62-.34-.71-.09-.84-.34-.84-.59s.21-.6.86-.6c.7,0,.9.36.92.6h-.38c-.03-.12-.11-.32-.56-.32-.38,0-.45.16-.45.28,0,.15.09.24.56.3.76.1.9.34.9.64,0,.36-.28.63-.93.63-.59,0-.93-.25-1-.67h.38Z"/>
    <path class="st3" d="M519.52,74.37h.4v-.65h.38v.65h.53v.3h-.53v1.11c0,.23.06.33.28.33.06,0,.14,0,.2-.02v.28c-.09.03-.2.04-.31.04-.42,0-.55-.19-.55-.58v-1.16h-.4v-.3Z"/>
    <path class="st3" d="M522.69,75.47c.02.39.28.67.69.67.32,0,.49-.13.6-.33h.38c-.11.3-.4.63-1,.63-.73,0-1.05-.53-1.05-1.06,0-.61.41-1.07,1.04-1.07.77,0,1.04.56,1.04,1.06,0,.03,0,.06,0,.1h-1.7ZM523.99,75.2c-.02-.24-.15-.59-.65-.59-.41,0-.62.26-.65.59h1.3Z"/>
    <path class="st3" d="M527.83,75.89c0,.2.01.45.02.5h-.36c-.02-.07-.02-.23-.02-.3-.11.21-.33.35-.76.35-.57,0-.78-.35-.78-.65,0-.52.47-.66,1.05-.66h.49v-.11c0-.22-.09-.43-.53-.43-.39,0-.48.17-.52.36h-.38c.02-.27.2-.64.9-.64.74,0,.9.36.9.69v.88ZM527.46,75.41c-.06,0-.2,0-.48,0-.46,0-.68.1-.68.37,0,.2.15.37.48.37.54,0,.68-.31.68-.65v-.09Z"/>
    <path class="st3" d="M531.63,73.39v2.42c0,.19,0,.39,0,.59h-.37c-.01-.09-.01-.21-.02-.31-.1.17-.27.36-.74.36-.59,0-.98-.44-.98-1.05,0-.67.5-1.08,1.03-1.08.48,0,.64.21.7.31v-1.24h.38ZM529.92,75.39c0,.37.23.74.67.74.48,0,.68-.31.68-.76s-.16-.74-.67-.74c-.46,0-.68.38-.68.76Z"/>
    <path class="st3" d="M533.59,76.39v-1.72h-.38v-.3h.38v-.27c0-.46.2-.74.67-.74.1,0,.18,0,.24.02v.31c-.05-.01-.13-.02-.18-.02-.27,0-.35.12-.35.44v.25h.47v.3h-.47v1.72h-.38Z"/>
    <path class="st3" d="M537.74,75.89c0,.2.01.45.02.5h-.36c-.02-.07-.02-.23-.02-.3-.11.21-.33.35-.76.35-.57,0-.78-.35-.78-.65,0-.52.47-.66,1.05-.66h.49v-.11c0-.22-.09-.43-.53-.43-.39,0-.48.17-.52.36h-.38c.02-.27.2-.64.9-.64.74,0,.9.36.9.69v.88ZM537.37,75.41c-.06,0-.2,0-.48,0-.46,0-.68.1-.68.37,0,.2.15.37.48.37.54,0,.68-.31.68-.65v-.09Z"/>
    <path class="st3" d="M539.77,75.78c.07.24.28.38.64.38.39,0,.53-.14.53-.32,0-.17-.1-.28-.62-.34-.71-.09-.84-.34-.84-.59s.21-.6.86-.6c.7,0,.9.36.92.6h-.38c-.03-.12-.11-.32-.56-.32-.38,0-.45.16-.45.28,0,.15.09.24.56.3.76.1.9.34.9.64,0,.36-.28.63-.93.63-.59,0-.93-.25-1-.67h.38Z"/>
    <path class="st3" d="M542.75,74.37h.4v-.65h.38v.65h.53v.3h-.53v1.11c0,.23.06.33.28.33.06,0,.14,0,.2-.02v.28c-.09.03-.2.04-.31.04-.42,0-.55-.19-.55-.58v-1.16h-.4v-.3Z"/>
    <path class="st3" d="M545.68,76.39v-3.01h.38v3.01h-.38Z"/>
    <path class="st3" d="M548.05,74.37c.43.99.66,1.56.72,1.73h0c.07-.2.28-.78.66-1.73h.39l-.79,1.92c-.36.87-.49,1.04-1,1.04-.07,0-.19,0-.26-.02v-.33c.08.01.17.02.22.02.27,0,.38-.11.56-.51l-.94-2.12h.42Z"/>
    <path class="st3" d="M553.79,73.39h.38v.46h-.38v-.46ZM553.79,74.37h.38v2.02h-.38v-2.02Z"/>
    <path class="st3" d="M556,74.88c0-.17,0-.36,0-.51h.37c0,.07.01.24.01.37.09-.19.3-.43.73-.43.47,0,.78.29.78.85v1.23h-.38v-1.16c0-.33-.13-.6-.5-.6-.42,0-.63.32-.63.79v.97h-.38v-1.51Z"/>
    <path class="st3" d="M562.49,76.09v1.19h-.38v-2.41c0-.17,0-.34,0-.5h.37c0,.06.01.2.01.35.12-.21.36-.4.78-.4.54,0,.94.45.94,1.03,0,.66-.46,1.1-1.01,1.1-.42,0-.61-.18-.71-.36ZM563.82,75.36c0-.36-.21-.73-.66-.73s-.68.33-.68.76.22.74.67.74.67-.36.67-.76Z"/>
    <path class="st3" d="M565.9,74.92c0-.18,0-.37,0-.55h.37c0,.06.01.27.01.46.13-.31.42-.51.82-.51v.36c-.46,0-.82.27-.82.87v.84h-.38v-1.47Z"/>
    <path class="st3" d="M570.45,75.89c0,.2.01.45.02.5h-.36c-.02-.07-.02-.23-.02-.3-.11.21-.33.35-.76.35-.57,0-.78-.35-.78-.65,0-.52.47-.66,1.05-.66h.49v-.11c0-.22-.09-.43-.53-.43-.39,0-.48.17-.52.36h-.38c.02-.27.2-.64.9-.64.74,0,.9.36.9.69v.88ZM570.08,75.41c-.06,0-.2,0-.48,0-.46,0-.68.1-.68.37,0,.2.15.37.48.37.54,0,.68-.31.68-.65v-.09Z"/>
    <path class="st3" d="M572.44,74.37c.43.99.66,1.56.72,1.73h0c.07-.2.28-.78.66-1.73h.39l-.79,1.92c-.36.87-.49,1.04-1,1.04-.07,0-.19,0-.26-.02v-.33c.08.01.17.02.22.02.27,0,.38-.11.56-.51l-.94-2.12h.42Z"/>
    <path class="st3" d="M576.04,75.47c.02.39.28.67.69.67.32,0,.49-.13.6-.33h.38c-.11.3-.4.63-1,.63-.73,0-1.05-.53-1.05-1.06,0-.61.41-1.07,1.04-1.07.77,0,1.04.56,1.04,1.06,0,.03,0,.06,0,.1h-1.7ZM577.34,75.2c-.02-.24-.15-.59-.65-.59-.41,0-.62.26-.65.59h1.3Z"/>
    <path class="st3" d="M579.42,74.92c0-.18,0-.37,0-.55h.37c0,.06.01.27.01.46.13-.31.42-.51.82-.51v.36c-.46,0-.82.27-.82.87v.84h-.38v-1.47Z"/>
    <path class="st3" d="M581.96,76.96c.2-.44.3-.84.32-1.19h.4c-.03.34-.17.86-.38,1.19h-.34ZM582.27,74.98v-.63h.42v.63h-.42Z"/>
    <path class="st3" d="M588.88,73.39v2.42c0,.19,0,.39,0,.59h-.37c-.01-.09-.01-.21-.02-.31-.1.17-.27.36-.74.36-.59,0-.98-.44-.98-1.05,0-.67.5-1.08,1.03-1.08.48,0,.64.21.7.31v-1.24h.38ZM587.17,75.39c0,.37.23.74.67.74.48,0,.68-.31.68-.76s-.16-.74-.67-.74c-.46,0-.68.38-.68.76Z"/>
    <path class="st3" d="M590.72,73.39h.38v.46h-.38v-.46ZM590.72,74.37h.38v2.02h-.38v-2.02Z"/>
    <path class="st3" d="M593.13,75.78c.07.24.28.38.64.38.39,0,.53-.14.53-.32,0-.17-.1-.28-.62-.34-.71-.09-.84-.34-.84-.59s.21-.6.86-.6c.7,0,.9.36.92.6h-.38c-.03-.12-.11-.32-.56-.32-.38,0-.45.16-.45.28,0,.15.09.24.56.3.76.1.9.34.9.64,0,.36-.28.63-.93.63-.59,0-.93-.25-1-.67h.38Z"/>
    <path class="st3" d="M596.11,74.37h.4v-.65h.38v.65h.53v.3h-.53v1.11c0,.23.06.33.28.33.06,0,.14,0,.2-.02v.28c-.09.03-.2.04-.31.04-.42,0-.55-.19-.55-.58v-1.16h-.4v-.3Z"/>
    <path class="st3" d="M599.04,74.92c0-.18,0-.37,0-.55h.37c0,.06.01.27.01.46.13-.31.42-.51.82-.51v.36c-.46,0-.82.27-.82.87v.84h-.38v-1.47Z"/>
    <path class="st3" d="M601.82,73.39h.38v.46h-.38v-.46ZM601.82,74.37h.38v2.02h-.38v-2.02Z"/>
    <path class="st3" d="M604.04,73.39h.38v1.29c.1-.16.32-.37.75-.37.57,0,.97.44.97,1.03,0,.68-.42,1.1-1,1.1-.43,0-.63-.19-.74-.37,0,.1,0,.24-.01.31h-.37c0-.26,0-.46,0-.7v-2.31ZM605.75,75.36c0-.34-.2-.73-.66-.73s-.68.32-.68.75c0,.46.26.75.68.75.47,0,.66-.37.66-.77Z"/>
    <path class="st3" d="M609.69,75.8c0,.2,0,.39,0,.59h-.37c0-.06-.01-.2-.01-.34-.1.23-.28.4-.73.4s-.76-.23-.76-.82v-1.25h.38v1.19c0,.31.12.57.48.57.44,0,.62-.25.62-.84v-.92h.38v1.43Z"/>
    <path class="st3" d="M611.27,74.37h.4v-.65h.38v.65h.53v.3h-.53v1.11c0,.23.06.33.28.33.06,0,.14,0,.2-.02v.28c-.09.03-.2.04-.31.04-.42,0-.55-.19-.55-.58v-1.16h-.4v-.3Z"/>
    <path class="st3" d="M614.2,73.39h.38v.46h-.38v-.46ZM614.2,74.37h.38v2.02h-.38v-2.02Z"/>
    <path class="st3" d="M616.42,74.88c0-.17,0-.36,0-.51h.37c0,.07.01.24.01.37.09-.19.3-.43.73-.43.47,0,.78.29.78.85v1.23h-.38v-1.16c0-.33-.13-.6-.5-.6-.42,0-.63.32-.63.79v.97h-.38v-1.51Z"/>
    <path class="st3" d="M622.1,76.13c0,.76-.25,1.21-1.09,1.21s-.96-.46-1-.69h.39c.06.21.21.39.63.39.59,0,.69-.38.69-.88v-.11c-.12.24-.34.39-.76.39-.57,0-.97-.45-.97-1.02,0-.65.47-1.09,1.02-1.09.46,0,.65.21.71.37,0-.1,0-.25.01-.31h.37c0,.2,0,.39,0,.59v1.17ZM620.39,75.39c0,.42.27.72.67.72.42,0,.68-.26.68-.74s-.24-.73-.66-.73c-.47,0-.69.38-.69.76Z"/>
    <path class="st3" d="M626.05,74.37h.4v-.65h.38v.65h.53v.3h-.53v1.11c0,.23.06.33.28.33.06,0,.14,0,.2-.02v.28c-.09.03-.2.04-.31.04-.42,0-.55-.19-.55-.58v-1.16h-.4v-.3Z"/>
    <path class="st3" d="M630.99,75.38c0,.56-.36,1.07-1.09,1.07-.68,0-1.07-.51-1.07-1.07s.41-1.07,1.09-1.07,1.07.53,1.07,1.07ZM629.22,75.38c0,.38.25.75.69.75s.69-.35.69-.75-.25-.76-.69-.76-.68.35-.68.76Z"/>
    <path class="st3" d="M634.78,74.37h.4v-.65h.38v.65h.53v.3h-.53v1.11c0,.23.06.33.28.33.06,0,.14,0,.2-.02v.28c-.09.03-.2.04-.31.04-.42,0-.55-.19-.55-.58v-1.16h-.4v-.3Z"/>
    <path class="st3" d="M638.1,73.39v1.35c.07-.15.26-.42.75-.42.46,0,.77.28.77.86v1.22h-.38v-1.17c0-.34-.12-.59-.5-.59-.43,0-.63.34-.63.77v.99h-.38v-3.01h.38Z"/>
    <path class="st3" d="M641.68,75.47c.02.39.28.67.69.67.32,0,.49-.13.6-.33h.38c-.11.3-.4.63-1,.63-.73,0-1.05-.53-1.05-1.06,0-.61.41-1.07,1.04-1.07.77,0,1.04.56,1.04,1.06,0,.03,0,.06,0,.1h-1.7ZM642.99,75.2c-.02-.24-.15-.59-.65-.59-.41,0-.62.26-.65.59h1.3Z"/>
    <path class="st3" d="M647.43,74.88c0-.17,0-.36,0-.51h.37c0,.07.01.24.01.37.09-.19.3-.43.73-.43.47,0,.78.29.78.85v1.23h-.38v-1.16c0-.33-.13-.6-.5-.6-.42,0-.63.32-.63.79v.97h-.38v-1.51Z"/>
    <path class="st3" d="M651.39,75.47c.02.39.28.67.69.67.32,0,.49-.13.6-.33h.38c-.11.3-.4.63-1,.63-.73,0-1.05-.53-1.05-1.06,0-.61.41-1.07,1.04-1.07.77,0,1.04.56,1.04,1.06,0,.03,0,.06,0,.1h-1.7ZM652.7,75.2c-.02-.24-.15-.59-.65-.59-.41,0-.62.26-.65.59h1.3Z"/>
    <path class="st3" d="M655,75.47c.02.39.28.67.69.67.32,0,.49-.13.6-.33h.38c-.11.3-.4.63-1,.63-.73,0-1.05-.53-1.05-1.06,0-.61.41-1.07,1.04-1.07.77,0,1.04.56,1.04,1.06,0,.03,0,.06,0,.1h-1.7ZM656.31,75.2c-.02-.24-.15-.59-.65-.59-.41,0-.62.26-.65.59h1.3Z"/>
    <path class="st3" d="M660.33,73.39v2.42c0,.19,0,.39,0,.59h-.37c-.01-.09-.01-.21-.02-.31-.1.17-.27.36-.74.36-.59,0-.98-.44-.98-1.05,0-.67.5-1.08,1.03-1.08.48,0,.64.21.7.31v-1.24h.38ZM658.62,75.39c0,.37.23.74.67.74.48,0,.68-.31.68-.76s-.16-.74-.67-.74c-.46,0-.68.38-.68.76Z"/>
    <path class="st3" d="M662.36,75.78c.07.24.28.38.64.38.39,0,.53-.14.53-.32,0-.17-.1-.28-.62-.34-.71-.09-.84-.34-.84-.59s.21-.6.86-.6c.7,0,.9.36.92.6h-.38c-.03-.12-.11-.32-.56-.32-.38,0-.45.16-.45.28,0,.15.09.24.56.3.76.1.9.34.9.64,0,.36-.28.63-.93.63-.59,0-.93-.25-1-.67h.38Z"/>
    <path class="st3" d="M669.98,75.38c0,.56-.36,1.07-1.09,1.07-.68,0-1.07-.51-1.07-1.07s.41-1.07,1.09-1.07,1.07.53,1.07,1.07ZM668.21,75.38c0,.38.25.75.69.75s.69-.35.69-.75-.25-.76-.69-.76-.68.35-.68.76Z"/>
    <path class="st3" d="M671.78,76.39v-1.72h-.38v-.3h.38v-.27c0-.46.2-.74.67-.74.1,0,.18,0,.24.02v.31c-.05-.01-.13-.02-.18-.02-.27,0-.35.12-.35.44v.25h.47v.3h-.47v1.72h-.38Z"/>
    <path class="st3" d="M676.28,74.37h.4v-.65h.38v.65h.53v.3h-.53v1.11c0,.23.06.33.28.33.06,0,.14,0,.2-.02v.28c-.09.03-.2.04-.31.04-.42,0-.55-.19-.55-.58v-1.16h-.4v-.3Z"/>
    <path class="st3" d="M679.59,73.39v1.35c.07-.15.26-.42.75-.42.46,0,.77.28.77.86v1.22h-.38v-1.17c0-.34-.12-.59-.5-.59-.43,0-.63.34-.63.77v.99h-.38v-3.01h.38Z"/>
    <path class="st3" d="M683.17,75.47c.02.39.28.67.69.67.32,0,.49-.13.6-.33h.38c-.11.3-.4.63-1,.63-.73,0-1.05-.53-1.05-1.06,0-.61.41-1.07,1.04-1.07.77,0,1.04.56,1.04,1.06,0,.03,0,.06,0,.1h-1.7ZM684.48,75.2c-.02-.24-.15-.59-.65-.59-.41,0-.62.26-.65.59h1.3Z"/>
    <path class="st3" d="M689.12,75.78c.07.24.28.38.64.38.39,0,.53-.14.53-.32,0-.17-.1-.28-.62-.34-.71-.09-.84-.34-.84-.59s.21-.6.86-.6c.7,0,.9.36.92.6h-.38c-.03-.12-.11-.32-.56-.32-.38,0-.45.16-.45.28,0,.15.09.24.56.3.76.1.9.34.9.64,0,.36-.28.63-.93.63-.59,0-.93-.25-1-.67h.38Z"/>
    <path class="st3" d="M694.12,75.89c0,.2.01.45.02.5h-.36c-.02-.07-.02-.23-.02-.3-.11.21-.33.35-.76.35-.57,0-.78-.35-.78-.65,0-.52.47-.66,1.05-.66h.49v-.11c0-.22-.09-.43-.53-.43-.39,0-.48.17-.52.36h-.38c.02-.27.2-.64.9-.64.74,0,.9.36.9.69v.88ZM693.75,75.41c-.06,0-.2,0-.48,0-.46,0-.68.1-.68.37,0,.2.15.37.48.37.54,0,.68-.31.68-.65v-.09Z"/>
    <path class="st3" d="M695.97,73.39h.38v.46h-.38v-.46ZM695.97,74.37h.38v2.02h-.38v-2.02Z"/>
    <path class="st3" d="M698.18,74.88c0-.17,0-.36,0-.51h.37c0,.07.01.24.01.37.09-.19.3-.43.73-.43.47,0,.78.29.78.85v1.23h-.38v-1.16c0-.33-.13-.6-.5-.6-.42,0-.63.32-.63.79v.97h-.38v-1.51Z"/>
    <path class="st3" d="M701.65,74.37h.4v-.65h.38v.65h.53v.3h-.53v1.11c0,.23.06.33.28.33.06,0,.14,0,.2-.02v.28c-.09.03-.2.04-.31.04-.42,0-.55-.19-.55-.58v-1.16h-.4v-.3Z"/>
    <path class="st3" d="M704.78,75.78c.07.24.28.38.64.38.39,0,.53-.14.53-.32,0-.17-.1-.28-.62-.34-.71-.09-.84-.34-.84-.59s.21-.6.86-.6c.7,0,.9.36.92.6h-.38c-.03-.12-.11-.32-.56-.32-.38,0-.45.16-.45.28,0,.15.09.24.56.3.76.1.9.34.9.64,0,.36-.28.63-.93.63-.59,0-.93-.25-1-.67h.38Z"/>
    <path class="st3" d="M707.73,76.94c.21-.47.3-.85.33-1.2h.39c-.03.35-.18.87-.39,1.2h-.33Z"/>
    <path class="st3" d="M714.53,76.13c0,.76-.25,1.21-1.09,1.21s-.96-.46-1-.69h.39c.06.21.21.39.63.39.59,0,.69-.38.69-.88v-.11c-.12.24-.34.39-.76.39-.57,0-.97-.45-.97-1.02,0-.65.47-1.09,1.02-1.09.46,0,.65.21.71.37,0-.1,0-.25.01-.31h.37c0,.2,0,.39,0,.59v1.17ZM712.81,75.39c0,.42.27.72.67.72.42,0,.68-.26.68-.74s-.24-.73-.66-.73c-.47,0-.69.38-.69.76Z"/>
    <path class="st3" d="M716.37,73.39h.38v.46h-.38v-.46ZM716.37,74.37h.38v2.02h-.38v-2.02Z"/>
    <path class="st3" d="M718.72,74.37c.18.47.62,1.46.7,1.67h0c.06-.17.19-.51.69-1.67h.39l-.88,2.02h-.42l-.89-2.02h.41Z"/>
    <path class="st3" d="M722.3,75.47c.02.39.28.67.69.67.32,0,.49-.13.6-.33h.38c-.11.3-.4.63-1,.63-.73,0-1.05-.53-1.05-1.06,0-.61.41-1.07,1.04-1.07.77,0,1.04.56,1.04,1.06,0,.03,0,.06,0,.1h-1.7ZM723.6,75.2c-.02-.24-.15-.59-.65-.59-.41,0-.62.26-.65.59h1.3Z"/>
    <path class="st3" d="M725.67,74.88c0-.17,0-.36,0-.51h.37c0,.07.01.24.01.37.09-.19.3-.43.73-.43.47,0,.78.29.78.85v1.23h-.38v-1.16c0-.33-.13-.6-.5-.6-.42,0-.63.32-.63.79v.97h-.38v-1.51Z"/>
    <path class="st3" d="M731.52,74.37h.4v-.65h.38v.65h.53v.3h-.53v1.11c0,.23.06.33.28.33.06,0,.14,0,.2-.02v.28c-.09.03-.2.04-.31.04-.42,0-.55-.19-.55-.58v-1.16h-.4v-.3Z"/>
    <path class="st3" d="M736.45,75.38c0,.56-.36,1.07-1.09,1.07-.68,0-1.07-.51-1.07-1.07s.41-1.07,1.09-1.07,1.07.53,1.07,1.07ZM734.69,75.38c0,.38.25.75.69.75s.69-.35.69-.75-.25-.76-.69-.76-.68.35-.68.76Z"/>
    <path class="st3" d="M740.89,73.39v1.35c.07-.15.26-.42.75-.42.46,0,.77.28.77.86v1.22h-.38v-1.17c0-.34-.12-.59-.5-.59-.43,0-.63.34-.63.77v.99h-.38v-3.01h.38Z"/>
    <path class="st3" d="M746.25,75.38c0,.56-.36,1.07-1.09,1.07-.68,0-1.07-.51-1.07-1.07s.41-1.07,1.09-1.07,1.07.53,1.07,1.07ZM744.48,75.38c0,.38.25.75.69.75s.69-.35.69-.75-.25-.76-.69-.76-.68.35-.68.76Z"/>
    <path class="st3" d="M748.13,75.78c.07.24.28.38.64.38.39,0,.53-.14.53-.32,0-.17-.1-.28-.62-.34-.71-.09-.84-.34-.84-.59s.21-.6.86-.6c.7,0,.9.36.92.6h-.38c-.03-.12-.11-.32-.56-.32-.38,0-.45.16-.45.28,0,.15.09.24.56.3.76.1.9.34.9.64,0,.36-.28.63-.93.63-.59,0-.93-.25-1-.67h.38Z"/>
    <path class="st3" d="M751.75,76.09v1.19h-.38v-2.41c0-.17,0-.34,0-.5h.37c0,.06.01.2.01.35.12-.21.36-.4.78-.4.54,0,.94.45.94,1.03,0,.66-.46,1.1-1.01,1.1-.42,0-.61-.18-.71-.36ZM753.08,75.36c0-.36-.21-.73-.66-.73s-.68.33-.68.76.22.74.67.74.67-.36.67-.76Z"/>
    <path class="st3" d="M755.16,73.39h.38v.46h-.38v-.46ZM755.16,74.37h.38v2.02h-.38v-2.02Z"/>
    <path class="st3" d="M757.11,74.37h.4v-.65h.38v.65h.53v.3h-.53v1.11c0,.23.06.33.28.33.06,0,.14,0,.2-.02v.28c-.09.03-.2.04-.31.04-.42,0-.55-.19-.55-.58v-1.16h-.4v-.3Z"/>
    <path class="st3" d="M761.82,75.89c0,.2.01.45.02.5h-.36c-.02-.07-.02-.23-.02-.3-.11.21-.33.35-.76.35-.57,0-.78-.35-.78-.65,0-.52.47-.66,1.05-.66h.49v-.11c0-.22-.09-.43-.53-.43-.39,0-.48.17-.52.36h-.38c.02-.27.2-.64.9-.64.74,0,.9.36.9.69v.88ZM761.44,75.41c-.06,0-.2,0-.48,0-.46,0-.68.1-.68.37,0,.2.15.37.48.37.54,0,.68-.31.68-.65v-.09Z"/>
    <path class="st3" d="M763.65,76.39v-3.01h.38v3.01h-.38Z"/>
    <path class="st3" d="M765.87,73.39h.38v.46h-.38v-.46ZM765.87,74.37h.38v2.02h-.38v-2.02Z"/>
    <path class="st3" d="M767.83,74.37h.4v-.65h.38v.65h.53v.3h-.53v1.11c0,.23.06.33.28.33.06,0,.14,0,.2-.02v.28c-.09.03-.2.04-.31.04-.42,0-.55-.19-.55-.58v-1.16h-.4v-.3Z"/>
    <path class="st3" d="M770.91,74.37c.43.99.66,1.56.72,1.73h0c.07-.2.28-.78.66-1.73h.39l-.79,1.92c-.36.87-.49,1.04-1,1.04-.07,0-.19,0-.26-.02v-.33c.08.01.17.02.22.02.27,0,.38-.11.56-.51l-.94-2.12h.42Z"/>
    <path class="st3" d="M774.19,76.39v-.66h.42v.66h-.42Z"/>
    <path class="st3" d="M776.26,74.55l-.04-.76v-.4h.39v.4l-.04.77h-.3Z"/>
  </g>
  <g>
    <path class="st0" d="M398.94,160.93c1.95,1.79,3.21,3.99,3.78,6.59.98,2.77,1.46,5.61,1.46,8.54v.49c-.08,2.52-.51,5.53-1.28,9.03-.77,3.5-1.69,6.47-2.75,8.91-.81,2.28-2.1,4.86-3.84,7.75-1.75,2.89-3.4,5.27-4.94,7.14-5.12,5.69-10,8.42-14.64,8.17-1.14-.08-2.38-.47-3.72-1.16-1.34-.69-2.38-1.48-3.11-2.38-.9-1.38-1.34-2.93-1.34-4.64,0-1.3.28-2.52.85-3.66,1.71-4.72,4.66-8.76,8.84-12.14,4.19-3.37,8.92-5.96,14.21-7.75.57-.24.93-.08,1.1.49.08.65-.12,1.06-.61,1.22-2.12.81-4.5,2.01-7.14,3.6-2.64,1.59-4.78,3.11-6.41,4.58-1.87,1.71-3.5,3.66-4.88,5.86-1.46,2.28-2.2,4.76-2.2,7.44v.24c.08.9.51,1.71,1.28,2.44.77.73,1.65,1.14,2.62,1.22.32.08.65.12.98.12,1.95,0,3.7-.57,5.25-1.71,1.71-1.14,3.5-2.7,5.37-4.7,1.87-1.99,3.33-3.84,4.39-5.55,2.52-4.15,4.43-8.54,5.73-13.18,1.54-4.55,2.32-9.23,2.32-14.03v-1.83c-.16-1.22-.37-2.36-.61-3.42-.24-1.06-.61-2.28-1.1-3.66-.49-1.38-1.22-2.38-2.2-2.99-.98-.61-2.07-.71-3.29-.3-2.52,1.06-4.56,2.73-6.1,5-1.71,1.95-3.29,4.03-4.76,6.22-1.95,3.01-3.96,6.85-6.04,11.53-2.07,4.68-3.52,8.76-4.33,12.26v3.29c-.41,1.06-1.14,1.59-2.2,1.59s-1.75-.53-2.07-1.59c-.08-.98-.12-1.99-.12-3.05,0-2.68.3-5.92.92-9.7.61-3.78,1.32-6.97,2.13-9.58,1.22-3.66,2.68-7.2,4.39-10.61.89-1.54,1.83-3.05,2.81-4.51.08-.08.28-.37.61-.85.32-.49.55-.81.67-.98.12-.16.34-.43.67-.79.32-.37.63-.63.92-.79.28-.16.59-.28.92-.37h.24c.57,0,.93.24,1.1.73-.08,1.79-.65,3.38-1.71,4.76-1.22,2.36-2.03,3.95-2.44,4.76-1.55,3.17-2.81,6.47-3.78,9.88-1.22,3.82-2.03,7.69-2.44,11.59,1.3-3.74,3.31-8.05,6.04-12.93,2.72-4.88,5.39-8.82,7.99-11.83,4.8-5.69,8.95-7.28,12.44-4.76Z"/>
    <path class="st0" d="M427.12,190.95c.16-.32.41-.37.73-.12.24.16.28.37.12.61-1.79,2.93-3.78,5.69-5.98,8.3-.81.81-1.63,1.61-2.44,2.38-.81.77-1.79,1.55-2.93,2.32-1.14.77-2.24,1.36-3.29,1.77-1.06.41-2.18.55-3.36.43-1.18-.12-2.26-.59-3.23-1.4-2.12-1.71-2.85-4.64-2.2-8.78.24-1.63.73-3.17,1.46-4.64.32-.81.73-1.54,1.22-2.2.57-.81,1.34-1.26,2.32-1.34.81,0,1.34.41,1.59,1.22.08.57.02,1.12-.18,1.65-.2.53-.49,1.1-.85,1.71-.37.61-.59,1.12-.67,1.53-.57,1.46-.9,3.01-.98,4.64v.85c0,1.06.24,2.03.73,2.93.65.81,1.5,1.22,2.56,1.22.41,0,.81-.08,1.22-.24,1.3-.41,2.76-1.1,4.39-2.07,1.63-.98,2.93-1.95,3.9-2.93,2.28-2.36,4.23-4.96,5.86-7.81ZM409.31,183.87c-.16-.24-.24-.57-.24-.98v-.49c0-.41.12-.77.37-1.1.08-.16.16-.28.24-.37.24-.32.57-.53.98-.61h.61c.24,0,.49.08.73.24.16,0,.28.08.37.24.24.16.45.37.61.61l.12.49c.08.08.12.2.12.37s-.04.29-.12.37c0,.33-.08.61-.24.85v.12c-.08.16-.16.29-.24.37-.24.33-.57.53-.98.61h-.61c-.33,0-.61-.08-.85-.24h-.12l-.24-.12c-.08-.08-.16-.16-.24-.24v.12l-.24-.24Z"/>
    <path class="st0" d="M450.42,191.68c.16-.08.32-.12.49-.12.65,0,.98.33.98.98,0,.33-.12.61-.37.85-3.01,1.63-5.82,3.5-8.42,5.61.08,1.55.04,3.82-.12,6.83-.33,5.29-.98,10.53-1.95,15.74-.81,4.39-1.99,8.7-3.54,12.93-.57,1.71-1.53,3.56-2.87,5.55-1.34,1.99-2.71,3.56-4.09,4.7-.98.65-2.07.98-3.29.98-1.3,0-2.54-.47-3.72-1.4-1.18-.94-1.93-2.05-2.26-3.36-.49-1.95-.73-3.99-.73-6.1,0-2.28.33-4.51.98-6.71.81-3.34,2.32-7.1,4.51-11.29,2.2-4.19,4.39-7.58,6.59-10.19,1.87-2.28,3.9-4.39,6.1-6.34v-8.66c-1.38,1.87-2.85,3.66-4.39,5.37-1.06,1.22-2.2,2.32-3.42,3.29-1.14,1.14-2.44,1.95-3.9,2.44h-.61c-.73,0-1.4-.24-2.01-.73-.61-.49-.96-1.1-1.04-1.83-.08-.41-.12-.81-.12-1.22,0-1.46.37-2.85,1.1-4.15.65-1.22,1.59-2.52,2.81-3.9,1.22-1.38,2.44-2.4,3.66-3.05,1.3-.98,2.76-1.46,4.39-1.46h.85c.73.16,1.34.55,1.83,1.16.49.61.73,1.28.73,2.01v.12l.24-.24c0-.08.02-.35.06-.79.04-.45.06-.79.06-1.04.16-.73.63-1.08,1.4-1.04.77.04,1.24.39,1.4,1.04.65,2.2,1.06,5.21,1.22,9.03,2.36-1.87,4.84-3.54,7.44-5ZM435.05,226.94c2.03-7.81,3.21-15.78,3.54-23.91-1.87,1.87-3.62,3.86-5.25,5.98-1.87,2.36-3.74,5.45-5.61,9.27-1.87,3.82-3.17,7.24-3.9,10.25-1.14,5.2-.98,9.07.49,11.59,1.71,2.93,4.03,1.91,6.95-3.05,1.71-3.25,2.97-6.63,3.78-10.13ZM429.56,198.88c1.38-.89,2.89-2.13,4.51-3.72,1.63-1.59,2.89-3.07,3.78-4.45h-.24c-.24,0-.45-.08-.61-.24-.33-.16-.69-.24-1.1-.24h-.24c-.41,0-.81.08-1.22.24-1.14.57-2.2,1.26-3.17,2.07-1.71,1.55-3.05,3.38-4.03,5.49-.24.49-.41,1.02-.49,1.59v.49c.41,0,.81-.12,1.22-.37.57-.24,1.1-.53,1.59-.85Z"/>
    <path class="st0" d="M471.53,190.95c.16-.32.41-.37.73-.12.24.16.28.37.12.61-1.79,2.93-3.78,5.69-5.98,8.3-.81.81-1.63,1.61-2.44,2.38-.81.77-1.79,1.55-2.93,2.32-1.14.77-2.24,1.36-3.29,1.77-1.06.41-2.18.55-3.36.43-1.18-.12-2.26-.59-3.23-1.4-2.12-1.71-2.85-4.64-2.2-8.78.24-1.63.73-3.17,1.46-4.64.32-.81.73-1.54,1.22-2.2.57-.81,1.34-1.26,2.32-1.34.81,0,1.34.41,1.59,1.22.08.57.02,1.12-.18,1.65-.2.53-.49,1.1-.85,1.71-.37.61-.59,1.12-.67,1.53-.57,1.46-.9,3.01-.98,4.64v.85c0,1.06.24,2.03.73,2.93.65.81,1.5,1.22,2.56,1.22.41,0,.81-.08,1.22-.24,1.3-.41,2.76-1.1,4.39-2.07,1.63-.98,2.93-1.95,3.9-2.93,2.28-2.36,4.23-4.96,5.86-7.81ZM453.72,183.87c-.16-.24-.24-.57-.24-.98v-.49c0-.41.12-.77.37-1.1.08-.16.16-.28.24-.37.24-.32.57-.53.98-.61h.61c.24,0,.49.08.73.24.16,0,.28.08.37.24.24.16.45.37.61.61l.12.49c.08.08.12.2.12.37s-.04.29-.12.37c0,.33-.08.61-.24.85v.12c-.08.16-.16.29-.24.37-.24.33-.57.53-.98.61h-.61c-.33,0-.61-.08-.85-.24h-.12l-.24-.12c-.08-.08-.16-.16-.24-.24v.12l-.24-.24Z"/>
    <path class="st0" d="M518.62,159.35c.41.08.61.33.61.73s-.16.65-.49.73c-1.22.16-2.46.24-3.72.24s-2.5-.08-3.72-.24c-2.6-.16-5.21-.24-7.81-.24-5.29-.08-10.57-.12-15.86-.12h-4.51c-2.93,8.87-5.17,17.98-6.71,27.33-.81,4.88-1.38,9.8-1.71,14.76-.08,1.06-.18,3.34-.3,6.83-.12,3.5-.3,6.18-.55,8.05-.08.9-.59,1.45-1.53,1.65-.94.2-1.49-.18-1.65-1.16-.41-3.42-.61-6.79-.61-10.13,0-3.82.24-7.64.73-11.47.49-5.04,1.48-11.06,2.99-18.06,1.5-6.99,3.07-12.93,4.7-17.81l-11.96.24c-1.87.41-3.74.61-5.61.61-1.54,0-3.09-.12-4.64-.37h-.24c-.57-.08-.81-.43-.73-1.04.08-.61.41-.92.98-.92,7-.41,14.68-.61,23.06-.61.73-2.2,1.75-4.88,3.05-8.05.81-1.79,1.54-3.33,2.2-4.64.81-1.79,1.63-2.81,2.44-3.05,1.06-.41,2.05-.2,2.99.61.93.81,1.12,1.79.55,2.93-.41.81-1.06,1.22-1.95,1.22h-.49c-.08.16-.3.69-.67,1.59-.37.9-.63,1.55-.79,1.95-1.14,2.93-2.07,5.41-2.81,7.44h3.66c5.37,0,10.65.08,15.86.24l7.81.24h1.46c2.03,0,4.03.16,5.98.49Z"/>
    <path class="st0" d="M530.09,190.21c.16-.24.38-.34.67-.3.28.04.47.16.55.37.08.2.04.47-.12.79-2.36,3.17-4.8,6.26-7.32,9.27-2.28,2.77-4.8,5.33-7.56,7.69-2.77,2.2-5.08,2.24-6.95.12-1.63-2.28-2.44-4.84-2.44-7.69v-1.34c-1.3,1.46-2.73,2.73-4.27,3.78-3.09,2.12-5.61,2.44-7.56.98-.65-.57-1.2-1.34-1.65-2.32-.45-.98-.67-1.91-.67-2.81,0-.32.04-.69.12-1.1-.73.81-1.51,1.59-2.32,2.32-1.22,1.14-2.52,2.16-3.9,3.05-1.22.9-2.6,1.34-4.15,1.34-.16,0-.37-.04-.61-.12-.73-.16-1.38-.59-1.95-1.28-.57-.69-.85-1.44-.85-2.26v-.37c.24-1.79.81-3.42,1.71-4.88.65-1.3,1.67-2.66,3.05-4.09,1.38-1.42,2.68-2.5,3.9-3.23.81-.57,1.73-.85,2.75-.85s1.93.29,2.75.85c.73.49,1.26,1.14,1.59,1.95.16.33.24.65.24.98l.24-.37c.16-.24.37-.49.61-.73.24-.16.53-.32.85-.49h.37c.49,0,.73.24.73.73v.49c.08.08.12.18.12.3s-.04.23-.12.31l-.12.24-.24.85-.49,1.95c-.33,1.3-.49,2.64-.49,4.03v.24c0,.81.24,1.51.73,2.07.49.33,1.02.49,1.59.49.41,0,.81-.08,1.22-.24,2.44-.89,4.55-2.32,6.34-4.27.08-.08.2-.24.37-.49.16-.08.24-.16.24-.24.57-5.77,1.67-11.43,3.29-16.96,1.79-6.75,4.03-13.34,6.71-19.76,1.3-3.17,2.81-6.26,4.51-9.27.49-.98,1.34-2.48,2.56-4.51.98-1.63,1.95-2.44,2.93-2.44.32,0,.57.12.73.37.16.24.22.57.18.98-.04.41-.12.85-.24,1.34-.12.49-.3,1-.55,1.53-.24.53-.47,1-.67,1.4-.2.41-.39.81-.55,1.22-.16.41-.29.61-.37.61-1.46,3.17-2.81,6.3-4.03,9.39-1.71,4.07-3.44,9.03-5.18,14.88-1.75,5.86-3.03,10.94-3.84,15.25.08.08.12.16.12.24s-.04.16-.12.24c-.08.16-.12.33-.12.49-.33,1.71-.57,3.34-.73,4.88-.24,1.46-.37,2.95-.37,4.45s.12,2.99.37,4.45c.41,1.38,1.1,2.03,2.07,1.95,1.38-.24,2.64-.85,3.78-1.83,2.44-2.03,4.59-4.27,6.47-6.71,2.11-2.52,4.15-5.16,6.1-7.93ZM484.95,200.71h.12c1.38-.65,2.89-1.59,4.51-2.81,1.63-1.22,2.93-2.4,3.9-3.54.16-.65.41-1.3.73-1.95h-.24c-.33-.08-.61-.24-.85-.49-.24-.16-.49-.37-.73-.61-.33-.24-.73-.41-1.22-.49-.81-.08-1.95.49-3.42,1.71-1.87,1.63-3.29,3.62-4.27,5.98-.24.49-.45,1.02-.61,1.59v.98h.61c.49-.08.98-.2,1.46-.37Z"/>
    <path class="st0" d="M594.13,161.18c.24-.49.65-.73,1.22-.73.41,0,.75.14,1.04.43.28.29.43.63.43,1.04-.16.9-.35,2.2-.55,3.9-.2,1.71-.35,2.93-.43,3.66-.41,2.2-.81,4.72-1.22,7.56-.41,2.68-.94,7.48-1.59,14.4-.33,4.07-.45,8.95-.37,14.64,0,1.46.08,3.9.24,7.32.16,3.42.24,6.02.24,7.81,0,.98-.57,1.57-1.71,1.77-1.14.2-1.79-.22-1.95-1.28-.98-6.26-1.46-12.52-1.46-18.79,0-3.9.2-7.81.61-11.71.16-3.09.61-7.08,1.34-11.96-.16.41-.39.96-.67,1.65-.29.69-.47,1.12-.55,1.28-1.71,4.31-4.23,10.17-7.56,17.57-.33,1.06-1.02,2.09-2.07,3.11-1.06,1.02-2.12,1.69-3.17,2.01-.24.08-.53.12-.85.12-.98,0-1.97-.31-2.99-.92-1.02-.61-1.77-1.36-2.26-2.26-1.3-2.28-2.12-4.72-2.44-7.32-.49-2.6-.98-5.41-1.46-8.42-.33,2.03-.69,3.9-1.1,5.61-.98,4.47-2.24,8.91-3.78,13.3-1.3,4.39-3.09,8.54-5.37,12.44-.24.65-.69.98-1.34.98-.49,0-.9-.16-1.22-.49-.33-.32-.49-.73-.49-1.22,0-.16.04-.32.12-.49.49-1.71,1.28-4.13,2.38-7.26,1.1-3.13,1.73-4.98,1.89-5.55,1.46-4.31,2.68-8.54,3.66-12.69,2.2-8.62,3.7-17.4,4.51-26.35.08-.57.37-.98.85-1.22s.98-.24,1.46,0c.49.24.69.65.61,1.22v.24c0,3.34.28,6.63.85,9.88.32,3.66.69,6.95,1.1,9.88.41,2.52.93,5.41,1.59,8.66.24,2.28.89,4.43,1.95,6.47.32.57.71.92,1.16,1.04.45.12.89.04,1.34-.24.45-.28.85-.63,1.22-1.04.37-.41.77-.98,1.22-1.71.45-.73.79-1.34,1.04-1.83s.53-1.04.85-1.65c.32-.61.53-.99.61-1.16,2.76-5.12,5.25-10.25,7.44-15.37,1.14-2.52,2.24-5.53,3.29-9.03.24-.89.63-2.13,1.16-3.72.53-1.59.92-2.79,1.16-3.6Z"/>
    <path class="st0" d="M628.54,189.97c.24-.57.61-.73,1.1-.49.41.16.49.45.24.85-.98,2.68-2.36,5.12-4.15,7.32-1.63,1.95-3.46,3.66-5.49,5.12-3.09,2.03-5.61,2.32-7.56.85-.65-.49-1.2-1.24-1.65-2.26-.45-1.02-.67-1.93-.67-2.75,0-.41.04-.77.12-1.1-.73.81-1.51,1.55-2.32,2.2-1.22,1.22-2.52,2.24-3.9,3.05-1.22.9-2.6,1.34-4.15,1.34h-.61c-.73-.16-1.38-.59-1.95-1.28-.57-.69-.85-1.44-.85-2.26v-.49c.24-1.71.81-3.33,1.71-4.88.65-1.3,1.67-2.66,3.05-4.09,1.38-1.42,2.68-2.5,3.9-3.23.81-.49,1.73-.73,2.75-.73s1.93.24,2.75.73c.73.57,1.26,1.26,1.59,2.07.16.33.24.61.24.85l.24-.24c.16-.24.37-.49.61-.73.24-.16.53-.32.85-.49.08-.08.2-.12.37-.12.49,0,.73.24.73.73v.49c.08.16.12.3.12.43s-.04.23-.12.31l-.12.12-.24.98-.49,1.95c-.33,1.3-.49,2.6-.49,3.9v.24c0,.81.24,1.55.73,2.2.49.24,1.02.37,1.59.37.41,0,.81-.08,1.22-.24,2.44-.81,4.55-2.2,6.34-4.15,1.95-1.95,3.46-4.15,4.51-6.59ZM602.55,200.71c1.38-.65,2.91-1.59,4.57-2.81,1.67-1.22,2.99-2.4,3.97-3.54.24-.65.49-1.3.73-1.95h-.12c-.33-.08-.65-.24-.98-.49-.16-.16-.37-.37-.61-.61-.41-.24-.85-.41-1.34-.49-.73-.08-1.83.49-3.29,1.71-1.95,1.63-3.42,3.62-4.39,5.98-.24.49-.41,1.02-.49,1.59-.08.16-.12.33-.12.49s.04.33.12.49h.61c.49-.08.93-.2,1.34-.37Z"/>
    <path class="st0" d="M646.59,186.55c.65.24.98.69.98,1.34,0,.41-.14.75-.43,1.04-.29.29-.63.43-1.04.43-.16,0-.33-.04-.49-.12-3.17-1.06-6.26.33-9.27,4.15-2.2,2.85-3.86,6.02-5,9.52.08.41.12,1.06.12,1.95,0,.57-.2,1.04-.61,1.4-.41.37-.85.55-1.34.55-.98,0-1.63-.45-1.95-1.34-.41-1.54-.61-3.05-.61-4.51v-4.27c.16-1.54.41-3.05.73-4.51.24-1.54.77-2.93,1.59-4.15.49-.57,1.06-.69,1.71-.37.65.33.98.81.98,1.46v.12c0,.73-.08,1.42-.24,2.07-.24,1.06-.37,1.67-.37,1.83-.24,1.63-.37,2.77-.37,3.42.89-2.11,2.07-4.07,3.54-5.86,1.54-2.03,3.33-3.46,5.37-4.27,2.03-.81,4.27-.77,6.71.12Z"/>
    <path class="st0" d="M678.07,191.07c.32-.49.73-.53,1.22-.12.16.24.16.49,0,.73-1.3,1.63-3.15,3.13-5.55,4.51-2.4,1.38-4.66,2.2-6.77,2.44-2.52.33-5,.49-7.44.49h-1.95c-1.06-.08-2.6-.12-4.64-.12h-1.59c-.49,2.44-.77,3.99-.85,4.64-.33,1.79-.69,4.29-1.1,7.5-.41,3.21-.73,5.47-.98,6.77-.08.9-.63,1.28-1.65,1.16-1.02-.12-1.53-.63-1.53-1.53.08-6.18.69-12.28,1.83-18.3-.08-.16-.12-.32-.12-.49,0-.32.12-.61.37-.85.65-4.31,1.77-9.41,3.35-15.31,1.59-5.9,3.11-10.88,4.58-14.94,1.71-5.04,3.82-9.92,6.34-14.64.65-1.22,1.38-2.36,2.2-3.42.65-1.14,1.46-2.07,2.44-2.81.89-.49,1.75-.41,2.56.24.81.65.85,1.38.12,2.2l.24-.12c-.24.33-.45.57-.61.73,0,.08-.1.29-.3.61-.2.33-.39.61-.55.85l-1.95,3.42c-1.3,2.36-2.44,4.72-3.42,7.08-3.66,8.95-6.67,18.1-9.03,27.45-.08.65-.26,1.59-.55,2.81-.29,1.22-.43,1.91-.43,2.07l3.05-2.32,4.15-2.93c1.14-1.14,2.44-1.83,3.9-2.07.57,0,.85.29.85.85v.24c-.08.81-1.06,2.07-2.93,3.78-1.3,1.14-2.52,2.16-3.66,3.05-.81.57-1.79,1.26-2.93,2.07,2.85.33,5.69.49,8.54.49h.49c6.59-.24,11.35-2.32,14.27-6.22Z"/>
    <path class="st0" d="M694.78,190.34c.16-.24.41-.37.73-.37.49,0,.73.29.73.85,0,.16-.04.29-.12.37-.98,1.87-2.44,3.9-4.39,6.1s-3.78,3.95-5.49,5.25c-1.79,1.38-3.78,2.2-5.98,2.44h-.37c-1.06,0-2.07-.35-3.05-1.04-.98-.69-1.63-1.53-1.95-2.5-.24-.81-.37-1.63-.37-2.44,0-1.63.41-3.17,1.22-4.64.89-2.03,2.24-3.78,4.03-5.25,1.79-1.63,3.9-2.56,6.34-2.81h.12c.81,0,1.53.3,2.13.91s.92,1.36.92,2.26c0,.33-.04.65-.12.98-.9,1.95-2.28,3.46-4.15,4.51-1.46,1.06-3.13,1.59-5,1.59-.24,0-.45-.04-.61-.12-.24.65-.41,1.3-.49,1.95-.24,1.46.04,2.36.85,2.68.49.08.98.12,1.46.12.89,0,1.75-.16,2.56-.49,1.54-.65,2.97-1.46,4.27-2.44,2.68-2.28,4.92-4.92,6.71-7.93ZM683.31,190.7c-1.14,1.06-2.07,2.24-2.81,3.54-.24.41-.49.81-.73,1.22.08,0,.24-.04.49-.12.24-.08.41-.12.49-.12.41-.08.81-.2,1.22-.37.89-.32,1.75-.73,2.56-1.22.73-.57,1.54-1.4,2.44-2.5.89-1.1,1.1-1.81.61-2.13-.81-.65-2.24-.08-4.27,1.71Z"/>
    <path class="st0" d="M741.26,159.35c.41.08.61.33.61.73s-.16.65-.49.73c-1.22.16-2.46.24-3.72.24s-2.5-.08-3.72-.24c-2.6-.16-5.21-.24-7.81-.24-5.29-.08-10.57-.12-15.86-.12h-4.51c-2.93,8.87-5.17,17.98-6.71,27.33-.81,4.88-1.38,9.8-1.71,14.76-.08,1.06-.18,3.34-.3,6.83-.12,3.5-.3,6.18-.55,8.05-.08.9-.59,1.45-1.53,1.65-.94.2-1.49-.18-1.65-1.16-.41-3.42-.61-6.79-.61-10.13,0-3.82.24-7.64.73-11.47.49-5.04,1.48-11.06,2.99-18.06,1.5-6.99,3.07-12.93,4.7-17.81l-11.96.24c-1.87.41-3.74.61-5.61.61-1.54,0-3.09-.12-4.64-.37h-.24c-.57-.08-.81-.43-.73-1.04.08-.61.41-.92.98-.92,7-.41,14.68-.61,23.06-.61.73-2.2,1.75-4.88,3.05-8.05.81-1.79,1.54-3.33,2.2-4.64.81-1.79,1.63-2.81,2.44-3.05,1.06-.41,2.05-.2,2.99.61.93.81,1.12,1.79.55,2.93-.41.81-1.06,1.22-1.95,1.22h-.49c-.08.16-.3.69-.67,1.59-.37.9-.63,1.55-.79,1.95-1.14,2.93-2.07,5.41-2.81,7.44h3.66c5.37,0,10.65.08,15.86.24l7.81.24h1.46c2.03,0,4.03.16,5.98.49Z"/>
    <path class="st0" d="M727.84,190.95c.16-.32.41-.37.73-.12.24.16.28.37.12.61-1.79,2.93-3.78,5.69-5.98,8.3-.81.81-1.63,1.61-2.44,2.38-.81.77-1.79,1.55-2.93,2.32-1.14.77-2.24,1.36-3.29,1.77-1.06.41-2.18.55-3.36.43-1.18-.12-2.26-.59-3.23-1.4-2.12-1.71-2.85-4.64-2.2-8.78.24-1.63.73-3.17,1.46-4.64.32-.81.73-1.54,1.22-2.2.57-.81,1.34-1.26,2.32-1.34.81,0,1.34.41,1.59,1.22.08.57.02,1.12-.18,1.65-.2.53-.49,1.1-.85,1.71-.37.61-.59,1.12-.67,1.53-.57,1.46-.9,3.01-.98,4.64v.85c0,1.06.24,2.03.73,2.93.65.81,1.5,1.22,2.56,1.22.41,0,.81-.08,1.22-.24,1.3-.41,2.76-1.1,4.39-2.07,1.63-.98,2.93-1.95,3.9-2.93,2.28-2.36,4.23-4.96,5.86-7.81ZM710.03,183.87c-.16-.24-.24-.57-.24-.98v-.49c0-.41.12-.77.37-1.1.08-.16.16-.28.24-.37.24-.32.57-.53.98-.61h.61c.24,0,.49.08.73.24.16,0,.28.08.37.24.24.16.45.37.61.61l.12.49c.08.08.12.2.12.37s-.04.29-.12.37c0,.33-.08.61-.24.85v.12c-.08.16-.16.29-.24.37-.24.33-.57.53-.98.61h-.61c-.33,0-.61-.08-.85-.24h-.12l-.24-.12c-.08-.08-.16-.16-.24-.24v.12l-.24-.24Z"/>
    <path class="st0" d="M745.16,198.39c.08-.08,1.2-1.32,3.35-3.72,2.15-2.4,3.27-3.64,3.36-3.72.32-.24.61-.18.85.18.24.37.24.67,0,.92l-3.29,3.9-3.17,3.9c-2.2,2.2-4.11,3.03-5.73,2.5-1.63-.53-2.2-1.97-1.71-4.33.81-4.23,1.3-6.59,1.46-7.08.24-.89.37-1.54.37-1.95v-.85c-.08.08-.16.12-.24.12-.41-.08-1.22.65-2.44,2.2-1.3,1.71-2.48,3.5-3.54,5.37-.98,1.79-2.16,3.46-3.54,5-.57.81-1.34,1.22-2.32,1.22-.65,0-1.26-.24-1.83-.73-.57-.49-.9-1.06-.98-1.71-.08-.49-.12-1.02-.12-1.59,0-1.71.32-3.37.98-5,.32-.98.89-1.99,1.71-3.05.81-1.06,1.67-1.83,2.56-2.32.16-.16.32-.24.49-.24.73,0,1.1.41,1.1,1.22v.24c-.16.65-.51,1.57-1.04,2.75-.53,1.18-.88,2.05-1.04,2.62-.24.9-.41,1.83-.49,2.81v.98c.65-.57,1.26-1.18,1.83-1.83.98-1.14,1.87-2.32,2.68-3.54,1.38-2.28,3.09-4.23,5.12-5.86.49-.32.98-.49,1.46-.49.65,0,1.22.2,1.71.61.98,1.06,1.46,2.32,1.46,3.78v.12c0,1.14-.2,2.73-.61,4.76-.57,2.52-.45,3.74.37,3.66.41-.08.81-.37,1.22-.85Z"/>
    <path class="st0" d="M775.05,191.68c.16-.08.32-.12.49-.12.65,0,.98.33.98.98,0,.33-.12.61-.37.85-3.01,1.63-5.82,3.5-8.42,5.61.08,1.55.04,3.82-.12,6.83-.33,5.29-.98,10.53-1.95,15.74-.81,4.39-1.99,8.7-3.54,12.93-.57,1.71-1.53,3.56-2.87,5.55-1.34,1.99-2.71,3.56-4.09,4.7-.98.65-2.07.98-3.29.98-1.3,0-2.54-.47-3.72-1.4-1.18-.94-1.93-2.05-2.26-3.36-.49-1.95-.73-3.99-.73-6.1,0-2.28.33-4.51.98-6.71.81-3.34,2.32-7.1,4.51-11.29,2.2-4.19,4.39-7.58,6.59-10.19,1.87-2.28,3.9-4.39,6.1-6.34v-8.66c-1.38,1.87-2.85,3.66-4.39,5.37-1.06,1.22-2.2,2.32-3.42,3.29-1.14,1.14-2.44,1.95-3.9,2.44h-.61c-.73,0-1.4-.24-2.01-.73-.61-.49-.96-1.1-1.04-1.83-.08-.41-.12-.81-.12-1.22,0-1.46.37-2.85,1.1-4.15.65-1.22,1.59-2.52,2.81-3.9,1.22-1.38,2.44-2.4,3.66-3.05,1.3-.98,2.76-1.46,4.39-1.46h.85c.73.16,1.34.55,1.83,1.16.49.61.73,1.28.73,2.01v.12l.24-.24c0-.08.02-.35.06-.79.04-.45.06-.79.06-1.04.16-.73.63-1.08,1.4-1.04.77.04,1.24.39,1.4,1.04.65,2.2,1.06,5.21,1.22,9.03,2.36-1.87,4.84-3.54,7.44-5ZM759.68,226.94c2.03-7.81,3.21-15.78,3.54-23.91-1.87,1.87-3.62,3.86-5.25,5.98-1.87,2.36-3.74,5.45-5.61,9.27-1.87,3.82-3.17,7.24-3.9,10.25-1.14,5.2-.98,9.07.49,11.59,1.71,2.93,4.03,1.91,6.95-3.05,1.71-3.25,2.97-6.63,3.78-10.13ZM754.19,198.88c1.38-.89,2.89-2.13,4.51-3.72,1.63-1.59,2.89-3.07,3.78-4.45h-.24c-.24,0-.45-.08-.61-.24-.33-.16-.69-.24-1.1-.24h-.24c-.41,0-.81.08-1.22.24-1.14.57-2.2,1.26-3.17,2.07-1.71,1.55-3.05,3.38-4.03,5.49-.24.49-.41,1.02-.49,1.59v.49c.41,0,.81-.12,1.22-.37.57-.24,1.1-.53,1.59-.85Z"/>
  </g>
  <g>
    <path class="st4" d="M219.27,53.59c3.06,0,5.28,1.12,6.46,3.24.62,1.04.84,2.26.84,3.68,0,4.7-2.68,7.08-7.58,7.08h-4.14v-13.98l4.42-.02ZM218.97,66.24c4.04,0,5.76-1.94,5.76-5.7,0-3.46-1.76-5.58-5.44-5.58h-2.66v11.28h2.34Z"/>
    <path class="st4" d="M236.01,53.63c2.98,0,4.48,1.42,4.48,4.18,0,2.04-1.1,3.46-3.26,4l2.92,5.78h-1.78l-2.78-5.68h-3.48v5.68h-1.68v-13.98l5.58.02ZM235.67,60.57c2,0,3.08-.82,3.08-2.7,0-2.02-1.04-2.88-3.08-2.88h-3.54v5.58h3.54Z"/>
    <path class="st4" d="M246.15,53.63v13.96h-1.72v-13.96h1.72Z"/>
    <path class="st4" d="M251.99,53.61l4.66,11.58,4.68-11.58h1.76l-5.56,13.98h-1.74l-5.58-13.98h1.78Z"/>
    <path class="st4" d="M276.05,53.61v1.36h-7.4v4.96h6.76v1.34h-6.76v4.98h7.4v1.34h-9.08v-13.98h9.08Z"/>
    <path class="st4" d="M281.47,53.61l7.62,11.52v-11.52h1.72v13.98h-1.72l-7.62-11.44v11.44h-1.7v-13.98h1.7Z"/>
    <path class="st4" d="M310.33,53.61c2.46,0,3.7,1.26,3.7,3.7,0,1.38-.96,2.5-2.32,3.12,1.8.5,2.82,1.6,2.82,3.3,0,1.6-.62,2.74-1.84,3.38-.62.32-1.32.48-2.04.48h-6.76v-13.98h6.44ZM310.07,59.82c1.52,0,2.28-.76,2.28-2.38,0-1.86-.72-2.5-2.42-2.5h-4.3v4.88h4.44ZM310.21,66.32c1.8,0,2.54-.7,2.54-2.56s-.76-2.62-2.72-2.62h-4.4v5.18h4.58Z"/>
    <path class="st4" d="M318.13,53.61h1.74l4.14,7.38c1.34-2.34,2.86-5.04,4.2-7.38h1.74l-5.14,8.4v5.58h-1.62v-5.58l-5.06-8.4Z"/>
    <path class="st4" d="M342.39,65.3c.2.08.1.04.3.14,1.18.56,2.42,1.14,3.76,1.14,2.3,0,3.42-.8,3.42-2.38,0-1.06-.56-1.66-1.46-2.16-.4-.22-1.16-.52-2.14-.92-1.36-.56-2.3-1.1-2.88-1.78-.6-.64-.84-1.4-.84-2.38,0-1.44.82-2.54,2.22-3.16.72-.32,1.52-.48,2.46-.48,1.48,0,2.84.44,4.04.96v1.7l-.28-.14c-1.1-.54-2.34-1.14-3.42-1.14-2.1,0-3.26.82-3.26,2.26,0,.96.54,1.62,1.46,2.14.4.2,1.08.52,2,.88,1.86.76,2.9,1.4,3.48,2.38.28.48.42,1.08.42,1.82,0,2.42-1.7,3.72-5.1,3.72-1.58,0-3.16-.58-4.18-1.08v-1.52Z"/>
    <path class="st4" d="M360.83,53.61c3.02,0,4.66,1.5,4.66,4.26s-1.64,4.22-4.66,4.22h-3.64v5.5h-1.68v-13.98h5.32ZM360.61,60.57c2.1,0,3.2-.56,3.2-2.7s-1.1-2.9-3.2-2.9h-3.42v5.6h3.42Z"/>
    <path class="st4" d="M370.83,53.63v13.96h-1.72v-13.96h1.72Z"/>
    <path class="st4" d="M380.81,53.63c2.98,0,4.48,1.42,4.48,4.18,0,2.04-1.1,3.46-3.26,4l2.92,5.78h-1.78l-2.78-5.68h-3.48v5.68h-1.68v-13.98l5.58.02ZM380.47,60.57c2,0,3.08-.82,3.08-2.7,0-2.02-1.04-2.88-3.08-2.88h-3.54v5.58h3.54Z"/>
    <path class="st4" d="M390.95,53.63v13.96h-1.72v-13.96h1.72Z"/>
    <path class="st4" d="M394.53,55.21v-1.6h10.64v1.6h-4.48v12.38h-1.7v-12.38h-4.46Z"/>
    <path class="st4" d="M408.23,66.84c0-.44.34-.78.76-.78.44,0,.78.34.78.78s-.34.76-.78.76-.76-.32-.76-.76Z"/>
    <path class="st4" d="M427.09,53.59c3.06,0,5.28,1.12,6.46,3.24.62,1.04.84,2.26.84,3.68,0,4.7-2.68,7.08-7.58,7.08h-4.14v-13.98l4.42-.02ZM426.79,66.24c4.04,0,5.76-1.94,5.76-5.7,0-3.46-1.76-5.58-5.44-5.58h-2.66v11.28h2.34Z"/>
    <path class="st4" d="M447.33,53.61v1.36h-7.4v4.96h6.76v1.34h-6.76v4.98h7.4v1.34h-9.08v-13.98h9.08Z"/>
    <path class="st4" d="M460.15,53.61v1.36h-7.4v5h6.76v1.26h-6.76v6.36h-1.68v-13.98h9.08Z"/>
    <path class="st4" d="M465.35,53.63v13.96h-1.72v-13.96h1.72Z"/>
    <path class="st4" d="M471.43,53.61l7.62,11.52v-11.52h1.72v13.98h-1.72l-7.62-11.44v11.44h-1.7v-13.98h1.7Z"/>
    <path class="st4" d="M494.05,53.61v1.36h-7.4v4.96h6.76v1.34h-6.76v4.98h7.4v1.34h-9.08v-13.98h9.08Z"/>
    <path class="st4" d="M502.19,53.59c3.06,0,5.28,1.12,6.46,3.24.62,1.04.84,2.26.84,3.68,0,4.7-2.68,7.08-7.58,7.08h-4.14v-13.98l4.42-.02ZM501.89,66.24c4.04,0,5.76-1.94,5.76-5.7,0-3.46-1.76-5.58-5.44-5.58h-2.66v11.28h2.34Z"/>
    <path class="st4" d="M528.67,53.61c2.46,0,3.7,1.26,3.7,3.7,0,1.38-.96,2.5-2.32,3.12,1.8.5,2.82,1.6,2.82,3.3,0,1.6-.62,2.74-1.84,3.38-.62.32-1.32.48-2.04.48h-6.76v-13.98h6.44ZM528.41,59.82c1.52,0,2.28-.76,2.28-2.38,0-1.86-.72-2.5-2.42-2.5h-4.3v4.88h4.44ZM528.55,66.32c1.8,0,2.54-.7,2.54-2.56s-.76-2.62-2.72-2.62h-4.4v5.18h4.58Z"/>
    <path class="st4" d="M536.46,53.61h1.74l4.14,7.38c1.34-2.34,2.86-5.04,4.2-7.38h1.74l-5.14,8.4v5.58h-1.62v-5.58l-5.06-8.4Z"/>
    <path class="st4" d="M566.71,53.63c2.98,0,4.48,1.42,4.48,4.18,0,2.04-1.1,3.46-3.26,4l2.92,5.78h-1.78l-2.78-5.68h-3.48v5.68h-1.68v-13.98l5.58.02ZM566.36,60.57c2,0,3.08-.82,3.08-2.7,0-2.02-1.04-2.88-3.08-2.88h-3.54v5.58h3.54Z"/>
    <path class="st4" d="M584.17,53.61v1.36h-7.4v4.96h6.76v1.34h-6.76v4.98h7.4v1.34h-9.08v-13.98h9.08Z"/>
    <path class="st4" d="M587.5,65.3c.2.08.1.04.3.14,1.18.56,2.42,1.14,3.76,1.14,2.3,0,3.42-.8,3.42-2.38,0-1.06-.56-1.66-1.46-2.16-.4-.22-1.16-.52-2.14-.92-1.36-.56-2.3-1.1-2.88-1.78-.6-.64-.84-1.4-.84-2.38,0-1.44.82-2.54,2.22-3.16.72-.32,1.52-.48,2.46-.48,1.48,0,2.84.44,4.04.96v1.7l-.28-.14c-1.1-.54-2.34-1.14-3.42-1.14-2.1,0-3.26.82-3.26,2.26,0,.96.54,1.62,1.46,2.14.4.2,1.08.52,2,.88,1.86.76,2.9,1.4,3.48,2.38.28.48.42,1.08.42,1.82,0,2.42-1.7,3.72-5.1,3.72-1.58,0-3.16-.58-4.18-1.08v-1.52Z"/>
    <path class="st4" d="M600.5,53.61h1.68v8.9c0,2.64,1.5,3.8,4.06,3.8s4.04-1.16,4.04-3.8v-8.9h1.68v8.82c0,3.46-1.92,5.56-5.72,5.56s-5.74-2.1-5.74-5.56v-8.82Z"/>
    <path class="st4" d="M617.74,53.61v12.64h7.26v1.34h-8.94v-13.98h1.68Z"/>
    <path class="st4" d="M627.66,55.21v-1.6h10.64v1.6h-4.48v12.38h-1.7v-12.38h-4.46Z"/>
    <path class="st4" d="M641.32,65.3c.2.08.1.04.3.14,1.18.56,2.42,1.14,3.76,1.14,2.3,0,3.42-.8,3.42-2.38,0-1.06-.56-1.66-1.46-2.16-.4-.22-1.16-.52-2.14-.92-1.36-.56-2.3-1.1-2.88-1.78-.6-.64-.84-1.4-.84-2.38,0-1.44.82-2.54,2.22-3.16.72-.32,1.52-.48,2.46-.48,1.48,0,2.84.44,4.04.96v1.7l-.28-.14c-1.1-.54-2.34-1.14-3.42-1.14-2.1,0-3.26.82-3.26,2.26,0,.96.54,1.62,1.46,2.14.4.2,1.08.52,2,.88,1.86.76,2.9,1.4,3.48,2.38.28.48.42,1.08.42,1.82,0,2.42-1.7,3.72-5.1,3.72-1.58,0-3.16-.58-4.18-1.08v-1.52Z"/>
    <path class="st4" d="M654.08,66.84c0-.44.34-.78.76-.78.44,0,.78.34.78.78s-.34.76-.78.76-.76-.32-.76-.76Z"/>
  </g>
  <polygon class="st2" points="402.46 145.88 421.42 193.49 440.38 145.88 402.46 145.88"/>
</svg>